<?xml version="1.0" standalone="no"?>
<!DOCTYPE svg PUBLIC "-//W3C//DTD SVG 1.1//EN" "http://www.w3.org/Graphics/SVG/1.1/DTD/svg11.dtd" >
<!--
2013-9-30: Created.
-->
<svg>
<metadata>
Created by iconfont
</metadata>
<defs>

<font id="iconfont" horiz-adv-x="1024" >
  <font-face
    font-family="iconfont"
    font-weight="500"
    font-stretch="normal"
    units-per-em="1024"
    ascent="896"
    descent="-128"
  />
    <missing-glyph />
    
    <glyph glyph-name="natice" unicode="&#58974;" d="M949.046914 748.375801c-6.221702 6.160303-14.827707 9.977235-24.303522 9.977235-18.941398 0-34.393321-15.257495-34.393321-34.035164l0-27.148313-756.704235-222.978421 0 11.901051c0 9.393951-3.857864 17.907858-10.089799 24.068162-6.231935 6.160303-14.827707 9.967002-24.303522 9.967002-18.941398 0-34.393321-15.247262-34.393321-34.035164l0-170.145122c0-18.757203 15.451924-34.035164 34.393321-34.035164s34.393321 15.277962 34.393321 34.035164l0 8.534374 756.704235-252.316609 0-28.478612c0-18.757203 15.451924-34.035164 34.393321-34.035164 18.951631 0 34.403554 15.277962 34.403554 34.035164l0 680.631652C959.146946 733.711823 955.289082 742.215498 949.046914 748.375801zM855.956749 520.127354l-687.917592-102.095259 0 17.017582 687.917592 187.172937L855.956749 520.127354zM529.194614 152.177144l-7.78736-21.704324c-7.664563-22.666232-24.016996-41.310871-45.915749-52.137451-12.93459-6.385431-26.872021-9.608845-40.911782-9.608845-9.772574 0-19.61678 1.555425-29.194926 4.717442l-85.548398 28.284183c-48.003294 15.881712-73.995271 67.466578-57.970296 114.958218l7.889691 22.072715c3.796466 10.621918 15.544021 16.20917 26.329668 12.422937 10.754948-3.755534 16.362666-15.421224 12.5662-26.053376l-7.766894-21.745257c-8.68787-25.787316 5.617951-54.163597 32.04995-62.902632l85.558631-28.284183c12.791327-4.318352 26.493397-3.264347 38.558178 2.660596 12.054547 5.976108 21.059642 16.250102 25.326828 28.939099l7.92039 22.072715c3.796466 10.601452 15.554254 16.158005 26.370601 12.392238C527.383362 174.47498599999994 533.021779 162.80929500000002 529.194614 152.177144z"  horiz-adv-x="1024" />

    
    <glyph glyph-name="11" unicode="&#58958;" d="M512 896C229.248 896 0 666.752 0 384c0-282.752 229.248-512 512-512s512 229.248 512 512C1024 666.752 794.752 896 512 896zM434.304 147.072c-7.168-7.168-16.96-11.264-27.136-11.264s-19.968 4.032-27.136 11.264L170.24 356.864l54.272 54.272 182.592-182.592 392.256 392.32 54.272-54.272L434.304 147.072z"  horiz-adv-x="1024" />

    
    <glyph glyph-name="tongzhi" unicode="&#58918;" d="M544.874735 642.394161c-12.497639 6.083555-27.254737 4.073782-37.871539-5.052063L302.298977 461.010067l-163.147754 0.680499-0.144286 0c-9.388834 0-18.436908-3.839445-25.086351-10.722202-6.706749-6.881734-10.503215-16.247033-10.503215-26.049283l-0.73985-294.686602c0-9.803273 3.709485-19.195178 10.389628-26.108634 6.64535-6.971785 15.725146-10.839883 25.195845-10.839883l165.095106 0 203.675796-175.682231c6.505158-5.611811 14.639418-8.505721 22.773679-8.505721 5.134951 0 10.272971 1.150196 15.096836 3.484358 12.497639 6.052856 20.488637 19.050891 20.488637 33.345456L565.393048 609.046658C565.393048 623.31257 557.403073 636.309582 544.874735 642.394161L544.874735 642.394161 544.874735 642.394161zM682.884972 458.206208c-17.549701 8.594749-38.411845 0.766456-46.943149-17.311271-8.504698-18.136056-1.14508-40.079834 16.264429-49.146327 2.25639-1.212618 55.564503-29.890774 55.564503-111.559818 0-87.24811-49.855478-116.163673-51.510164-117.111255-17.5804-9.095145-24.716938-31.250748-15.924691-49.444109 6.279007-12.93459 18.807345-20.380166 31.905664-20.380166 5.334495 0 10.786671 1.243317 15.867386 3.871167 3.709485 1.947352 90.836845 48.616254 90.836845 183.065386C778.946818 409.911272 686.794002 456.286486 682.884972 458.206208L682.884972 458.206208 682.884972 458.206208zM793.6988 566.395256c-16.408715 10.902304-38.185694 5.939269-48.91506-11.014868-10.673084-16.95516-5.991458-39.755446 10.329253-50.918693 3.853771-2.631944 95.034447-66.932412 95.034447-226.988758 0-160.409386-87.470167-224.772276-90.949408-227.224118-16.383132-11.311627-20.776186-34.143635-9.876951-51.094702 6.850012-10.636245 18.150382-16.396435 29.650297-16.396435 6.762007 0 13.642718 2.042519 19.721157 6.206352 4.995781 3.425006 122.628922 86.893023 122.628922 288.539602C921.322479 479.528839 798.919708 562.941598 793.6988 566.395256L793.6988 566.395256 793.6988 566.395256zM793.6988 566.395256"  horiz-adv-x="1024" />

    
    <glyph glyph-name="handoright" unicode="&#58992;" d="M192 160q0 13-9.5 22.5t-22.5 9.5-22.5-9.5-9.5-22.5 9.5-22.5 22.5-9.5 22.5 9.5 9.5 22.5zm704 288q0 25.5-19.5 44.75t-44.5 19.25l-288 0q0 10 7.5 24.25t16.5 27.5 16.5 34 7.5 42.25q0 33.5-22.25 48.75t-57.75 15.25q-12 0-45-69.5-12-22-18.5-32.5-20-32-56-72.5-35.5-40.5-50.5-53-34.5-28.5-70-28.5l-16 0 0-320 16 0q36 0 83.5-16t96.75-32 89.75-16q94.5 0 94.5 83.5 0 13-2.5 28 15 8 23.75 26.25t8.75 36.75-9 34.5q26.5 25 26.5 59.5 0 12.5-5 27.75t-12.5 23.75l165.5 0q26 0 45 19t19 45zm64 0.5q0-52.5-37.75-90.5t-90.25-38l-84.5 0q-2-31-18.5-59.5 1.5-10.5 1.5-21.5 0-50.5-30-89 0.5-69.5-42.5-109.75t-113.5-40.25q-66.5 0-161 34.5-82 29.5-111.5 29.5l-144 0q-26.5 0-45.25 18.75t-18.75 45.25l0 320q0 26.5 18.75 45.25t45.25 18.75l144 0q5 0 10.75 2.25t11.75 7 11.25 9 12 11.25 10.25 10.75 9.5 10.75 7 8.5q32.5 37 50 64.5 6.5 10.5 16.5 31t18.5 36 20.25 31.5 27.5 24.75 34.75 8.75q62.5 0 103.25-33.5t40.75-94.5q0-34-11-64l187 0q52 0 90-38t38-89.5z"  horiz-adv-x="1024" />

    
    <glyph glyph-name="gouwuche2" unicode="&#58909;" d="M317.125 207.496l539.969 0c25.713 0 51.426 17.142 59.996 42.854l102.852 445.688c8.572 17.142 0 34.284-8.57 51.426-8.57 17.142-34.285 25.712-51.426 25.712L222.844 773.176 197.132 884.6 34.284 884.6C17.142 884.6 0 876.029 0 858.887c0-17.142 17.142-34.284 34.284-34.284l111.421 0 51.426-222.844 0 0c0-8.571 0-8.571 0-17.142l77.138-317.125c-34.283-17.142-68.567-59.996-68.567-111.423 0-34.283 17.142-59.996 34.284-77.138-17.143-17.142-34.284-51.426-34.284-77.138 0-59.998 51.426-111.423 111.422-111.423 59.997 0 111.422 42.854 111.422 102.852 0 17.142-8.571 34.283-8.571 51.426l368.55 0c-8.568-17.143-8.568-34.284-8.568-51.426 0-59.997 51.424-111.423 111.42-111.423 59.998 0 111.424 51.426 111.424 111.423 0 59.996-42.855 102.851-102.852 111.422l-8.572 0L317.125 104.644l0 0c-25.713 0-51.425 25.713-51.425 51.425C274.27 181.782 291.412 207.496 317.125 207.496zM882.807 44.648c25.713 0 51.426-25.713 51.426-51.426 0-25.714-17.143-42.855-51.426-42.855-25.713 0-51.426 25.714-51.426 51.427C831.381 27.506 857.094 44.648 882.807 44.648zM317.125-49.633c-25.713 0-51.425 25.714-51.425 51.427 0 25.712 25.712 51.425 51.425 51.425l0 0 0 0c25.713 0 51.426-25.713 51.426-51.425C368.551-32.491 342.838-49.633 317.125-49.633zM857.094 267.492 342.838 267.492 274.27 567.475l651.392 0L857.094 267.492zM959.945 713.181l-17.143-85.709L257.128 627.472l-17.142 77.139L959.945 713.181z"  horiz-adv-x="1024" />

    
    <glyph glyph-name="34" unicode="&#59055;" d="M512 713.955556c-182.226489 0-329.955556-147.729067-329.955556-329.955556s147.729067-329.955556 329.955556-329.955556 329.955556 147.729067 329.955556 329.955556S694.226489 713.955556 512 713.955556zM512 108.248178c-152.291556 0-275.751822 123.460267-275.751822 275.751822S359.708444 659.751822 512 659.751822 787.751822 536.291556 787.751822 384 664.291556 108.248178 512 108.248178zM617.005511 485.387378c3.9936-11.912533-2.446222-24.814933-14.370133-28.785778-11.935289-3.970844-24.826311 2.446222-28.785778 14.370133-5.415822 16.156444-24.849067 35.032178-61.860978 35.032178-30.640356 0-48.810667-20.605156-50.926933-40.948622-2.594133-25.031111 18.716444-45.374578 55.591822-53.088711 73.773511-15.439644 95.414044-64.773689 91.522844-102.331733-4.061867-39.298844-34.133333-70.360178-73.432178-79.166578L534.744178 201.955556c0-12.561067-10.194489-22.755556-22.755556-22.755556s-22.755556 10.194489-22.755556 22.755556l0 27.716267c-46.876444 7.543467-73.398044 37.842489-82.249956 64.318578-3.9936 11.912533 2.446222 24.814933 14.370133 28.785778 11.901156 4.016356 24.814933-2.446222 28.785778-14.370133 5.415822-16.156444 24.849067-35.032178 61.860978-35.032178 30.640356 0 48.810667 20.605156 50.926933 40.948622 2.594133 25.031111-18.716444 45.374578-55.591822 53.088711-73.773511 15.439644-95.414044 64.773689-91.522844 102.331733 4.061867 39.298844 34.133333 70.360178 73.432178 79.166578L489.244444 577.422222c0 12.561067 10.194489 22.755556 22.755556 22.755556s22.755556-10.194489 22.755556-22.755556l0-27.716267C581.632 542.162489 608.1536 511.863467 617.005511 485.387378z"  horiz-adv-x="1024" />

    
    <glyph glyph-name="paypal" unicode="&#59369;" d="M880.64 765.216c25.696-12.576 48.096-30.496 64.512-52.48 34.528-46.304 44.224-109.376 28.832-187.456-15.552-79.04-50.4-145.728-101.152-194.048-9.28-9.696-19.232-18.752-29.792-27.072-54.368-42.816-123.008-65.44-198.496-65.44l-12.128 0L404.448 238.72 339.872-64l-132.416 0 10.08 46.304 46.144 0 64.576 302.72 188.256 0c180.256 0 330.944 111.072 371.264 299.936C933.472 798.784 780.16 896 648.352 896L199.072 896 0-17.696l152.032 0L128-128l263.648 0 64.576 302.72 188.256 0c180.256 0 330.944 111.072 371.264 299.936C1049.472 632.352 974.944 726.592 880.64 765.216zM422.336 709.92l129.12 0c64.576 0 107.616-55.552 88.8-124.96-16.128-69.44-83.392-124.96-150.624-124.96l-123.744 0L422.336 709.92z"  horiz-adv-x="1050" />

    
    <glyph glyph-name="chakan" unicode="&#58957;" d="M914.297945 896C314.456393 896 0 454.071569 0 383.980974c0-70.052544 314.456393-511.980974 914.297945-511.980974 599.8035 0 914.297945 441.928431 914.297945 511.980974C1828.633942 454.071569 1514.101446 896 914.297945 896zM914.297945-9.888596c-224.46494 0-406.388466 176.329977-406.388466 393.86957 0 217.539593 181.923526 393.86957 406.388466 393.86957 224.426889 0 406.388466-176.291925 406.388466-393.86957C1320.686411 166.441381 1138.762885-9.888596 914.297945-9.888596zM914.297945 383.980974c-37.252276 40.867155 60.653859 196.953811 0 196.953811-112.213444 0-203.194233-88.20304-203.194233-196.953811s90.980789-196.915759 203.194233-196.915759c112.175393 0 203.194233 88.164988 203.194233 196.915759C1117.492178 433.942403 945.918621 349.240088 914.297945 383.980974z"  horiz-adv-x="1829" />

    
    <glyph glyph-name="icon8" unicode="&#58897;" d="M958.672 832.037h-895.051v-895.052h895.051l0 895.052zM702.896 639.997h64.468v64.468h-64.468v64.468h64.468v-64.468h64.468v64.468h64.468v-64.468h-64.468v-64.468h64.468v-64.468h-64.468v64.468h-64.468v-64.468h-64.468v64.468zM414.836 639.997h64.468v64.468h-64.468v64.468h64.468v-64.468h64.468v64.468h64.468v-64.468h-64.468v-64.468h64.468v-64.468h-64.468v64.468h-64.468v-64.468h-64.468l0 64.468zM127.234 639.997h64.468v64.468h-64.468v64.468h64.468v-64.468h64.468v64.468h64.468v-64.468h-64.468v-64.468h64.468v-64.468h-64.468v64.468h-64.468v-64.468h-64.468l0 64.468zM127.467 349.378h64.468v64.468h-64.468v64.468h64.468v-64.468h64.468v64.468h64.468v-64.468h-64.468v-64.468h64.468v-64.468h-64.468v64.468h-64.468v-64.468h-64.468l-0 64.468zM320.872 131.414h-64.468v-64.468h64.468v-64.468h-64.468v64.468h-64.468v-64.468h-64.468v64.468h64.468v64.468h-64.468v64.468h64.468v-64.468h64.468v64.468h64.468l-0-64.468zM415.068 349.378h64.468v64.468h-64.468v64.468h64.468v-64.468h64.468v64.468h64.468v-64.468h-64.468v-64.468h64.468v-64.468h-64.468v64.468h-64.468v-64.468h-64.468l0 64.468zM608.473 131.414h-64.468v-64.468h64.468v-64.468h-64.468v64.468h-64.468v-64.468h-64.468v64.468h64.468v64.468h-64.468v64.468h64.468v-64.468h64.468v64.468h64.468v-64.468zM703.128 349.378h64.468v64.468h-64.468v64.468h64.468v-64.468h64.468v64.468h64.468v-64.468h-64.468v-64.468h64.468v-64.468h-64.468v64.468h-64.468v-64.468h-64.468v64.468zM896.533 131.414h-64.468v-64.468h64.468v-64.468h-64.468v64.468h-64.468v-64.468h-64.468v64.468h64.468v64.468h-64.468v64.468h64.468v-64.468h64.468v64.468h64.468v-64.468z"  horiz-adv-x="1024" />

    
    <glyph glyph-name="arrow-right" unicode="&#58976;" d="M325.048 802.489l-60.030-59.435 357.181-359.631-360.184-356.603 59.522-59.93 420.207 416.043z"  horiz-adv-x="1024" />

    
    <glyph glyph-name="xinfengbianjianxinzhi" unicode="&#58912;" d="M255.988 873.604c-23.129-2.574-42.524-1.058-56.657-8.717s-53.498-57.336-64.379-69.11-16.447-22.326-17.059-39.225-1.494-83.679-1.369-284.411c0-146.564 0.374-274.697 0.623-284.659 0.497-17.931 0.497-18.181-2.864-23.163-5.479-8.342-9.588-9.588-35.24-10.459-44.454-1.621-53.295-7.598-59.397-39.723-1.743-9.588-2.49-110.326-0.748-123.65 1.369-11.579 10.78-27.035 13.24-29.512s35.281-41.301 50.846-55.827 14.734-10.668 22.829-12.536c3.736-0.872 108.957-1.369 317.035-1.369 346.422 0 322.803 4.151 330.899 7.264s78.906 73.303 83.638 78.782c9.463 10.96 13.448 18.304 16.685 31.256 5.603 22.041 5.229 590.239 4.607 597.46-1.246 16.188 0.126 22.289 6.601 28.765 5.977 6.101 23.243 13.489 43.5 12.95 32.376 4.152 81.356 28.226 90.902 47.735s11.622 65.581 6.227 90.485-27.935 65.749-41.135 74.215c-8.591 5.479-20.671 9.339-38.477 12.328-15.191 2.49-647.175 3.694-670.306 1.121zM919.197 808.228c11.892-2.211 18.492-12.608 26.398-25.777s8.879-42.997 5.603-51.054-2.907-9.879-14.569-16.063-33.912-8.342-46.446-4.358-28.921 21.73-30.507 41.964 10.086 42.752 28.765 53.545c10.791 3.529 18.865 3.954 30.757 1.743zM749.72 789.053c25.28-3.736 31.88-10.335 37.483-37.357 1.12-4.98 2.366-635.938 2.739-652.873 0.748-32.873 0-40.22-4.608-47.194-4.73-6.849-13.78-8.795-23.41-9.463s-15.441 3.481-21.044 11.784-19.177 80.986-22.165 86.962c-5.23 10.709-10.959 13.076-33.87 14.445-9.962 0.623-462.103 0.873-476.672 6.725-10.335 4.234-16.188 14.569-18.803 33.622-1.494 10.46-2.41 515.524-0.748 535.448s34.119 54.706 48.19 58.277 500.082 1.494 512.908-0.374zM644.499 75.039c24.158-6.351 34.244-22.165 40.969-63.631 3.237-19.301 1.369-29.636-6.476-36.858-7.597-7.097 9.214-6.725-284.908-6.725-260.377 0-271.832 0.125-280.425 2.367-21.916 5.603-27.146 16.684-27.146 58.028 0 25.777 1.619 34.244 7.845 41.218 6.973 7.721-11.579 7.224 278.557 7.224 220.779 0.125 266.354-0.248 271.583-1.621zM303.057 567.279c-5.603-1.619-12.453-9.714-14.695-17.433-2.366-7.721-2.615-29.013-0.623-38.601 1.621-7.597 7.97-15.191 14.32-17.309 3.114-0.996 40.595-1.494 132.866-1.743 70.605-0.248 151.793-0.873 180.309-1.369 55.663-0.996 57.405-0.873 64.751 5.23 1.994 1.743 4.98 5.479 6.476 8.342 2.49 4.608 2.739 6.849 2.739 24.407 0 12.576-0.497 20.92-1.619 23.784-2.117 6.227-9.214 13.2-14.942 14.694-5.851 1.743-363.981 1.619-369.584 0zM310.405 422.831c-10.335-1.994-15.938-6.476-20.421-16.685-2.243-4.98-2.866-9.214-3.362-21.916-0.873-24.531 2.739-35.489 13.696-41.092l5.23-2.739 117.674 0.248c95.633 0.247 119.293 0.623 126.016 1.992 15.318 3.237 24.904 8.093 29.761 15.191 7.597 11.081 12.701 32.625 10.085 42.462-1.868 6.725-7.969 13.696-14.694 16.685-2.864 1.246-10.709 3.237-17.433 4.358-10.834 1.868-25.278 2.117-126.765 2.366-63.008 0.126-116.925-0.247-119.79-0.872z"  horiz-adv-x="1024" />

    
    <glyph glyph-name="qushuchakanshuxing2" unicode="&#59266;" d="M1014.272-6.4l-97.024 97.024c27.52 37.248 44.352 82.816 44.352 132.608 0 89.216-52.544 165.568-128 201.6l0 278.4c0 70.656-57.344 128-128 128l-576 0c-70.656 0-128-57.344-128-128l0-576c0-70.656 57.344-128 128-128 0 0 602.56 0 608 0 49.792 0 95.36 16.832 132.608 44.288l97.024-97.024c12.992-12.992 34.048-12.992 47.04 0S1027.264-19.392 1014.272-6.4zM225.536 639.232l384 0c17.664 0 32-14.336 32-32s-14.336-32-32-32l-384 0c-17.664 0-32 14.336-32 32S207.872 639.232 225.536 639.232zM353.536 191.232l-128 0c-17.664 0-32 14.336-32 32s14.336 32 32 32l128 0c17.664 0 32-14.336 32-32S371.264 191.232 353.536 191.232zM417.536 383.232l-192 0c-17.664 0-32 14.336-32 32s14.336 32 32 32l192 0c17.664 0 32-14.336 32-32S435.264 383.232 417.536 383.232zM577.536 223.232c0 88.384 71.616 160 160 160s160-71.616 160-160-71.616-160-160-160S577.536 134.848 577.536 223.232z"  horiz-adv-x="1025" />

    
    <glyph glyph-name="xiazai5" unicode="&#58885;" d="M965.680762-16.87161900000001l-170.959238 170.959238A450.072381 450.072381 0 0 1 451.535238 895.268571a450.072381 450.072381 0 0 1-450.072381-450.072381 450.072381 450.072381 0 0 1 740.156953-344.064l171.008-171.056761a37.546667 37.546667 0 1 1 53.052952 53.052952zM451.535238 70.11961899999994a375.076571 375.076571 0 1 0 0 750.153143 375.076571 375.076571 0 0 0 0-750.153143z"  horiz-adv-x="1024" />

    
    <glyph glyph-name="shoucang" unicode="&#58890;" d="M512.002047-17.854391l-62.554708 61.180408c-232.28846 200.949708-384.157333 336.436472-384.157333 502.446413 0 135.416156 107.175975 240.298901 245.699911 240.298901 75.902714 0 151.86785-34.997072 201.01213-91.76703 49.072649 56.769958 125.104299 91.76703 201.007013 91.76703 138.453329 0 245.699911-104.883769 245.699911-240.298901 0-166.009941-151.935388-301.496705-384.219755-502.446413L512.002047-17.854391z"  horiz-adv-x="1024" />

    
    <glyph glyph-name="question" unicode="&#58894;" d="M1119.113 818.688c-0.512 0-1.024 0.512-1.536 0.512 0 0 0 0-0.512 0 1.024-0.512 1.536-1.024 2.048-1.024 0 0.512 0 0.512 0 0.512zM901.001 781.824c-4.608-3.072-4.096-2.56-2.56-1.536 0.512 0.512 1.024 0.512 1.536 1.024 0.512 0 0.512 0 1.024 0.512zM602.505 293.376c29.696-52.224 73.216-96.768 125.952-126.464 51.712-29.184 111.104-45.056 170.496-44.032 57.856 1.536 115.712 17.408 164.864 47.616 52.224 32.768 95.232 78.848 121.344 134.656 29.184 61.44 38.912 129.536 27.136 196.608-2.56 15.36-6.656 30.208-11.264 44.544-1.536 4.096-3.072 8.192-4.096 12.288 0 0 0 0 0 0 0 0.512-0.512 1.536-0.512 2.048-0.512 2.56-0.512 6.144-1.536 8.704 0 1.536 0 3.072 0 4.096 0 4.096 0.512 7.68 0.512 11.776 0.512 4.096 1.024 8.192 1.536 12.288 0.512 2.048 0.512 4.096 1.024 6.144 0 1.024 0.512 2.048 0.512 3.072 0 1.536 0.512 3.584 0.512 4.096 0.512 2.56 1.024 5.12 1.536 7.68 1.024 4.608 2.048 9.216 2.56 14.336 2.048 10.24 4.096 20.48 6.144 30.72 4.096 22.528 8.192 45.568 9.728 68.608 2.56 43.008-4.096 91.136-36.864 122.88-5.632 5.12-11.264 9.728-17.408 14.336-1.024 1.024-2.048 1.536-3.072 2.048-2.56 1.536-5.12 3.072-7.168 4.608-2.56 1.536-4.608 2.56-7.68 3.072-31.232 14.336-66.56 15.872-99.328 5.12-37.376-12.288-70.144-34.304-101.376-57.344-13.312-9.728-26.624-19.968-39.936-30.208-3.072-2.048-6.144-4.608-9.216-6.656 0 0 0 0 0 0 0.512 0 1.024 0.512 1.024 1.024-0.512-0.512-1.536-1.024-2.048-1.536-0.512-0.512-1.024-1.024-1.536-1.024-0.512 0-0.512-0.512-1.024-0.512-5.632-3.584-11.264-7.168-17.408-9.728-2.048-1.024-4.096-2.048-6.144-2.56-1.024-0.512-2.048-0.512-3.072-1.024-1.024 0-2.048-0.512-3.072-0.512 0 0-0.512 0-0.512 0-8.192-0.512-15.872-1.536-24.064-2.56-27.648-3.584-54.784-11.776-80.384-22.016-59.904-24.576-111.104-68.608-145.92-122.368-31.744-49.664-50.176-108.032-51.2-167.424-1.536-56.832 12.8-115.712 40.96-166.4zM684.937 610.304c1.536 2.56 3.584 4.608 5.632 7.168 1.024 1.024 2.048 2.048 2.56 3.584 0.512 0.512 0.512 0.512 0.512 1.024 8.192 9.216 16.896 17.92 26.112 26.112 4.608 4.096 9.216 7.68 13.824 11.264 2.048 1.536 4.608 3.584 6.656 5.12 1.024 0.512 3.584 2.048 4.096 3.072 10.24 6.656 21.504 12.8 32.768 18.432 5.12 2.56 10.24 4.608 15.36 6.656 2.56 1.024 5.12 2.048 7.68 3.072 1.024 0.512 2.56 0.512 3.584 1.024 0 0 0.512 0 0.512 0 0 0 0.512 0 0.512 0.512 0 0 0 0-0.512 0 0 0 0 0 0 0 11.776 3.584 24.064 6.656 36.352 9.216 5.632 1.024 11.264 2.048 16.896 2.56 3.072 0.512 6.144 0.512 9.216 1.024-0.512 0-0.512 0-1.024 0 0.512 0 0.512 0 1.024 0 0 0 0 0 0 0 1.024 0 2.048 0 2.56 0 2.048 0 4.096 0.512 5.632 0.512 6.656 1.024 13.312 3.072 19.968 5.632 13.312 5.12 25.088 12.8 36.352 20.992 12.288 8.192 24.064 17.408 35.84 26.112 6.656 5.12 13.312 9.728 19.968 14.848 3.072 2.048 6.144 4.608 9.216 6.656 1.536 1.024 3.584 2.56 5.12 3.584 0.512 0.512 1.024 0.512 1.536 1.024 13.312 8.704 27.136 16.896 41.984 23.552 4.096 1.536 8.192 3.072 12.288 4.608-2.048-1.024-3.072-1.536-4.096-1.536 1.024 0.512 3.072 1.024 4.608 1.536 2.048 0.512 4.096 1.024 6.144 1.536 4.096 1.024 8.192 2.048 12.288 2.56 1.024 0 3.072 0 4.096 0.512-1.024 0-2.048 0-4.096 0 2.048 0 4.096 0 6.144 0.512 4.096 0 8.192 0 12.288-0.512 0.512 0 1.024 0 1.536 0 1.536-0.512 3.072-0.512 4.608-1.024 4.096-1.024 7.68-2.56 11.776-4.096-0.512 0.512-1.024 0.512-2.048 1.024 0.512-0.512 1.536-0.512 2.048-1.024 0 0 0 0 0.512 0 1.536-0.512 4.096-2.048 1.536-1.024 2.048-1.024 4.096-2.56 6.144-3.584 0 0 0 0 0 0 1.024-1.024 2.56-1.536 3.584-2.56 0 0 0.512-0.512 0.512-0.512 0 0 1.536-0.512 2.048-1.536 0.512-0.512 1.024-0.512 1.024-1.024 0.512-0.512 1.024-0.512 1.024-1.024-0.512 0-0.512 0.512-1.024 0.512 0.512-0.512 1.024-1.024 1.536-1.536 2.56-2.56 5.12-5.632 7.168-8.704 0 0 0.512-0.512 0.512-0.512 1.024-2.048 2.56-4.096 3.584-6.144 1.024-2.048 1.536-3.584 2.56-5.632 0-0.512 0.512-1.024 0.512-1.536 1.024-3.584 2.048-7.68 3.072-11.264 0.512-3.584 1.536-7.168 2.048-10.752 0-0.512 0.512-1.536 0.512-2.56 0-0.512 0-0.512 0-1.024 0-0.512 0-1.024 0-1.536 0 0.512 0 0.512 0 1.024 0-2.048 0-4.096 0.512-6.144 0.512-18.944-1.536-38.4-4.096-57.344-0.512-2.048-0.512-4.096-1.024-6.144 0-0.512 0-1.536-0.512-2.048-1.024-5.12-2.048-9.728-2.56-14.848-1.536-9.216-3.584-18.432-5.632-28.16-6.656-33.792-15.872-71.168-2.56-104.96 0 0.512-0.512 0.512-0.512 1.024 0-0.512 0-0.512 0.512-1.024 0.512-1.536 1.024-3.072 1.536-4.608 1.024-3.072 2.048-6.656 3.072-9.728 2.048-7.168 3.584-14.336 5.12-21.504 1.536-6.656 2.56-13.312 3.584-19.968 0-1.536 0.512-3.584 0.512-5.12 0 0 0 0 0 0 0 0 0 0 0 0.512 0 0 0-0.512 0-0.512 0-0.512 0-1.536 0-2.048 0-3.072 0.512-6.144 1.024-9.216 0.512-14.336 0.512-28.16-1.024-42.496-0.512-3.584-0.512-6.656-1.024-10.24 0-1.536-0.512-3.072-0.512-4.608 0 0 0 0 0-0.512-1.536-7.168-3.072-14.848-5.12-22.016-3.584-13.824-8.704-27.648-14.336-40.96-1.024-1.024-1.536-3.584-2.048-4.608-1.536-3.072-3.072-6.144-5.12-9.216-3.584-6.656-7.68-13.312-11.776-19.456-3.584-5.12-7.168-10.24-10.752-15.36-2.048-2.56-4.096-5.12-5.632-7.168-1.024-1.024-2.048-2.56-3.072-3.584 0.512 0.512 1.024 1.024 1.024 1.536-0.512-0.512-1.024-1.536-1.536-2.048-8.704-9.728-17.92-18.432-27.648-26.624-4.608-3.584-9.216-7.168-13.824-10.752-2.048-1.536-4.608-3.072-6.656-4.608 0 0 0.512 0.512 0.512 0.512-1.536-1.024-3.584-2.048-5.12-3.072-10.752-6.656-21.504-12.8-32.768-17.92-5.632-2.56-10.752-4.608-16.384-7.168-1.536-0.512-3.584-1.536-5.632-2.048-0.512-0.512-1.536-0.512-2.048-1.024 0 0 0 0 0 0-0.512 0-0.512 0-1.024-0.512 0 0 0.512 0 0.512 0.512-2.048-0.512-3.584-1.024-5.632-1.536-11.776-3.584-24.064-6.656-36.352-8.704-6.144-1.024-11.776-2.048-17.92-2.56-1.536 0-2.56 0-4.096-0.512-3.584 0-6.656-0.512-10.24-0.512-12.8-0.512-25.088 0-37.888 1.536-6.144 0.512-11.776 1.536-17.92 2.56 0 0 0.512 0 0.512 0-0.512 0-1.024 0-1.024 0-0.512 0-0.512 0-1.024 0-1.024 0-1.536 0.512-2.56 0.512-3.584 0.512-7.168 1.536-10.24 2.56-12.288 3.072-25.088 6.656-36.864 11.776-5.632 2.048-11.776 5.12-17.408 7.168 9.216-3.584-1.024 0.512-3.072 1.536-3.072 1.536-6.656 3.584-9.728 5.12-11.776 6.656-23.040 13.824-33.792 22.016-2.56 2.048-5.12 4.096-7.68 6.144-0.512 0.512-1.024 1.024-1.536 1.536-0.512 0.512-0.512 0.512-1.024 1.024-0.512 0-0.512 0.512-1.024 0.512 0 0 0.512-0.512 0.512-0.512-4.608 4.096-9.216 8.192-13.312 12.8-9.216 9.216-17.92 18.944-25.6 29.184-2.048 2.56-3.584 4.608-5.12 7.168 0 0 0.512-0.512 0.512-0.512-1.024 1.536-1.536 2.56-2.56 3.584-3.584 5.632-7.168 11.264-10.24 16.896-6.144 10.752-11.776 22.528-16.384 33.792-1.024 2.56-2.048 5.632-3.072 8.192 3.584-8.704-0.512 1.024-1.024 3.072-2.048 6.144-4.096 12.288-5.632 18.432-3.072 12.288-5.632 24.576-6.656 36.864 0 1.536-0.512 2.56-0.512 4.096 0 3.072-0.512 5.632-0.512 8.704-0.512 6.656-0.512 12.8-0.512 19.456 0 12.288 1.024 24.576 3.072 36.864 0 0 0-0.512 0-0.512 0 0.512 0 1.024 0 1.024 0 0.512 0 0.512 0 1.024 0 1.024 0.512 1.536 0.512 2.56 0.512 3.072 1.024 6.144 2.048 8.704 1.536 6.656 3.072 12.8 5.12 18.944 3.584 12.288 8.704 24.064 13.824 35.84-3.584-8.704 0.512 1.024 1.536 3.072 1.536 2.56 3.072 5.632 4.608 8.192 3.072 5.632 6.144 11.264 9.728 16.384 6.144 5.12 9.728 10.24 13.824 15.872zM635.273 496.128c0-0.512 0-0.512 0-1.024 0 0 0 0 0 0 0 0 0 0 0-0.512 1.024 6.144 0.512 3.584 0 1.536zM1150.345 473.6c0 0.512 0 1.536 0 2.048 0 0 0 0 0 0 0-4.608 0-3.584 0-2.048zM846.217 195.072c0.512 0 0.512 0 1.024 0 0 0 0 0 0 0 0 0 0 0 0.512 0-5.632 1.024-3.584 0.512-1.536 0zM977.801 205.824c0 0 0 0 0 0 1.024 0.512 1.536 0.512 2.56 1.024 1.024 0.512 2.048 1.024-2.56-1.024zM1089.417 282.624c1.536 1.536 2.56 3.072 0 0v0zM1039.241 237.056c0.512 0 0.512 0 0 0-5.632-3.584-1.024-1.024 0 0zM1136.521 538.112c-0.512 2.048-1.536 5.12 0 0v0zM1154.953 758.784c0 0 0 0.512 0 0.512 0 0.512 0 1.024 0 1.536 0 0.512 0 1.536-0.512 2.048-0.512 1.024-0.512 0.512 0.512-4.096zM871.817 710.656c-1.024 0-2.048 0-3.072 0 0 0 0 0 0 0 3.072 0 3.584 0 3.072 0zM1057.161 819.2c-0.512-0.512-1.024-0.512 0 0v0zM677.257 303.104c0 0 0.512 0 0 0-3.584 6.144-1.024 1.536 0 0zM1084.297 825.344c1.536 0 1.024 0 0 0v0zM721.801 253.952c0 0 0 0 0 0s0.512 0 0 0c0.512-0.512 1.024-1.024 1.536-1.024s3.584-2.56-1.536 1.024zM806.281 696.832c0 0 0 0 0 0-0.512 0-0.512-0.512-1.024-0.512-1.536-0.512-3.584-2.048 1.024 0.512zM1133.449 809.472c0 0 0 0 0 0-1.536 1.024-2.56 2.048-3.584 3.072 0-0.512 0.512-1.024 3.584-3.072zM685.449 158.208c-19.968 12.288-46.080 8.192-55.296-6.144-21.504-33.28-41.472-64-62.464-97.28-3.072-4.608-3.584-5.632-6.656-10.24-11.264-17.408-3.072-41.984 16.896-54.272 19.968-12.288 45.056-10.752 56.32 7.68 21.504 33.28 39.936 61.952 61.44 95.232 3.072 4.608 5.12 7.68 8.192 12.288 9.216 13.824 1.536 40.448-18.432 52.736zM807.817 364.032c1.536-1.024 2.56-1.024-2.048 1.536 0 0 0 0 0.512-0.512 0.512 0 1.024-0.512 1.536-1.024zM743.817 335.36c24.576-34.816 77.824-64.512 124.416-65.024 49.152-1.536 93.696 20.48 123.904 69.12 10.24 15.36-1.024 32.768-12.288 38.912-12.288 8.704-28.672 10.752-38.912-4.608-7.68-9.216-12.8-15.872-29.184-28.16-13.824-8.704-19.456-10.24-36.352-12.288-12.8-1.536-30.72 0-52.736 11.776-23.040 13.824-37.376 29.184-44.032 60.416-1.024 28.16 2.56 36.864 12.288 56.32 9.216 15.36 21.504 25.6 37.888 35.328 17.408 7.168 36.352 11.264 56.32 5.12 13.312-3.584 24.576-7.168 38.4-14.336 14.848-6.656 28.672 0.512 36.352 11.776 16.384 25.6 32.256 50.176 48.64 75.776 2.56 3.584 5.632 9.216 8.192 12.8 6.656 10.752 3.584 25.6-10.752 34.816-14.336 9.216-31.232 7.168-38.4-4.608-14.848-23.040-25.088-39.424-39.936-61.952-33.792 13.824-77.312 18.432-114.176 5.12-40.96-14.848-77.824-55.296-90.112-98.816-14.336-44.032-4.608-91.648 20.48-127.488zM776.073 409.088c-0.512 3.072-1.024 4.096-1.024 3.584 0-1.024 0.512-2.048 1.024-3.584 0 0 0 0 0 0zM909.705 345.6c1.536 0.512 5.632 2.56 0 0v0zM933.769 357.888c-0.512-0.512-0.512-0.512 0 0v0zM839.049 544.768c2.56 0.512 3.584 1.024 3.584 1.024-1.024-0.512-2.56-0.512-3.584-1.024 0 0 0 0 0 0zM814.985 532.48c-1.536-1.024-2.048-2.048 1.536 1.024 0 0-0.512 0-0.512-0.512-0.512 0-1.024-0.512-1.024-0.512zM1025.929 660.48c14.336-9.216 36.352-5.632 45.056 9.728s5.632 35.328-9.728 45.056c-14.336 9.216-36.352 5.632-45.056-9.728-8.704-15.36-5.632-35.328 9.728-45.056zM1011.081 72.704c-23.040-4.096-39.936-24.576-37.376-38.912 6.144-38.912 12.288-77.824 18.432-116.736 1.024-5.632 1.024-5.632 2.048-11.264 2.56-17.408 25.6-34.304 48.64-29.696 23.040 4.096 40.448 24.576 36.864 46.080-7.168 38.912-11.264 70.144-17.408 109.056-1.024 5.632-1.536 11.264-2.56 16.896-2.048 12.8-25.6 28.672-48.64 24.576zM444.297 437.248c-5.632-1.536-6.656-2.048-11.776-3.072-37.888-10.752-69.12-18.944-107.008-29.696-19.456-5.632-29.184-28.672-23.552-51.712 5.632-23.040 31.232-36.352 48.128-31.744 5.632 1.536 5.12 1.536 10.24 3.072 37.888 10.752 70.144 18.944 108.032 29.696 18.432 5.12 31.232 29.184 25.6 51.712-5.632 23.040-34.816 35.84-49.664 31.744z"  horiz-adv-x="1554" />

    
    <glyph glyph-name="diannaoshouji01" unicode="&#58996;" d="M908.328026 742.5317 326.284763 742.5317c-27.269064 0-55.602366-19.863397-55.602366-47.13246l0-49.39499 27.579125 0 0 49.39499c0 12.065803 15.97074 19.553335 28.02324 19.553335l582.043263 0c12.051477 0 24.251334-7.487531 24.251334-19.553335l0-270.013667L436.157149 425.385573l0-27.592428 496.42221 0 0-66.63156c0-12.072967-12.199856-16.112979-24.251334-16.112979L436.157149 315.048605l0-27.578102 472.170876 0c27.269064 0 51.830459 16.429181 51.830459 43.691081L960.158485 695.399239C960.158485 722.668303 935.597089 742.5317 908.328026 742.5317zM648.400065 349.94744c0 13.802354-11.230786 25.034163-25.047466 25.034163-13.802354 0-25.035186-11.231809-25.035186-25.034163 0-13.81668 11.232832-25.041326 25.035186-25.041326C637.169279 324.906114 648.400065 336.130759 648.400065 349.94744zM612.10851 349.94744c0 6.195096 5.048993 11.244089 11.244089 11.244089 6.207375 0 11.258415-5.050016 11.258415-11.244089 0-6.207375-5.051039-11.257391-11.258415-11.257391C617.157503 338.690048 612.10851 343.739041 612.10851 349.94744zM716.795804 261.910361l-27.039843-5.41329 10.314926-51.575656c0.551562-2.774183 0.161682-5.683443-1.105171-8.187473l-0.699941-0.080841c-2.168386-4.335748-6.531763-5.709025-11.380188-5.709025L574.470285 190.944076c-4.862751 0-9.211802 1.373277-11.392468 5.735631-1.455141 2.90926-1.736551 5.548366-0.795109 8.67252 2.100848 6.949272 11.636015 47.645137 9.184173 57.528228l-18.677385-4.847401-8.376785-0.188288c0.054235-4.982478-4.860704-33.073256-8.524141-45.112454-3.00238-9.911744-2.100848-19.149129 2.532683-28.386514 6.853082-13.735839 20.669762-20.980847 36.050054-20.980847l112.415302 0c15.35164 0 29.16832 7.218402 36.050054 20.954241l0.701988 0.726547c3.985778 7.999185 5.223978 16.887622 3.474125 25.613354L716.795804 261.910361zM360.570637 618.425124 111.846856 618.425124c-26.51591 0-48.007387-21.491477-48.007387-48.007387l0-496.927723c0-26.529213 21.491477-48.021713 48.007387-48.021713l248.723781 0c26.514887 0 48.007387 21.4925 48.007387 48.021713l0 496.927723C408.578024 596.933647 387.085524 618.425124 360.570637 618.425124zM380.998899 78.687386c0-11.257391-15.20326-25.63996-26.460652-25.63996L111.846856 53.047426c-11.257391 0-20.428262 14.382569-20.428262 25.63996l0 43.307342 289.580305 0L380.998899 78.687386zM380.998899 149.574876 91.418594 149.574876 91.418594 508.109646l289.580305 0L380.998899 149.574876zM380.998899 535.688771 91.418594 535.688771l0 34.594913c0 11.257391 9.17087 20.563338 20.428262 20.563338l242.690368 0c11.257391 0 26.460652-9.304923 26.460652-20.563338L380.997875 535.688771zM298.261523 577.056947l-96.52745 0c-7.621585 0-13.790074-6.167466-13.790074-13.790074s6.167466-13.790074 13.790074-13.790074l96.52745 0c7.621585 0 13.789051 6.167466 13.789051 13.790074S305.883107 577.056947 298.261523 577.056947zM233.192551 61.80181c13.31833 0 24.158213 10.82658 24.158213 24.158213 0 13.305027-10.839883 24.158213-24.158213 24.158213-13.31833 0-24.158213-10.853186-24.158213-24.158213C209.033315 72.62839 219.874221 61.80181 233.192551 61.80181zM233.192551 89.380936c1.88493 0 3.419889-1.535983 3.419889-3.420913 0-3.770883-6.840802-3.770883-6.840802 0C229.771639 87.844953 231.306598 89.380936 233.192551 89.380936z"  horiz-adv-x="1024" />

    
    <glyph glyph-name="lightningbshandian" unicode="&#59066;" d="M434.897971-66.214818c-2.485611 0-4.357238 0.661056-5.599532 1.871627-8.714476 2.52552-11.821233 7.463995-9.335622 14.935154l57.877175 341.637937L225.804792 292.2299c-6.220678 0-10.577916 2.492774-13.071713 7.471159-3.727904 4.938476-3.106758 10.538007 1.871627 16.799618L602.920756 824.297958c4.978385 7.471159 10.577916 8.674567 16.799618 3.736091 6.220678-1.242294 9.335622-6.260587 9.335622-14.935154l-57.877175-341.646124L793.34269 471.452771c6.220678 0 10.577916-2.52552 13.071713-7.463995 1.242294-4.978385 1.242294-10.577916 0-16.806781L447.969685-60.615287C444.233594-64.343191 439.876356-66.214818 434.897971-66.214818z"  horiz-adv-x="1024" />

    
    <glyph glyph-name="ai-message" unicode="&#58977;" d="M0 697.223v-433.692c0-84.328 68.266-152.595 152.595-152.595h228.895l8.032-192.753 224.878 192.753h257.003c84.328 0 152.595 68.266 152.595 152.595v433.692c0 84.328-68.266 152.595-152.595 152.595h-718.804c-84.328 0-152.595-68.266-152.595-152.595h-0.004zM658.57 456.283c0 40.158 32.125 72.282 72.282 72.282s72.282-32.125 72.282-72.282c0-40.158-32.125-72.282-72.282-72.282-40.158-0-72.282 32.125-72.282 72.282v0zM437.708 456.283c0 40.158 32.125 72.282 72.282 72.282s72.282-32.125 72.282-72.282c0-40.158-32.125-72.282-72.282-72.282-40.158-0-72.282 32.125-72.282 72.282zM220.864 456.283c0 40.158 32.125 72.282 72.282 72.282s72.282-32.125 72.282-72.282c0-40.158-32.125-72.282-72.282-72.282-40.159-0-72.282 32.125-72.282 72.282z"  horiz-adv-x="1024" />

    
    <glyph glyph-name="quanchangbaoyou" unicode="&#58905;" d="M772.479523 829.805392 251.53378 829.805392c-102.19759 0-185.340195-83.135442-185.340195-185.332009l0-520.945743c0-102.19759 83.142605-185.332009 185.340195-185.332009l520.945743 0c102.190427 0 185.324846 83.135442 185.324846 185.332009L957.804369 644.473383C957.805392 746.670973 874.66995 829.805392 772.479523 829.805392zM868.740914 123.52764c0-53.085032-43.183522-96.268554-96.261391-96.268554L251.53378 27.259086c-53.085032 0-96.275717 43.183522-96.275717 96.268554L155.258063 644.473383c0 53.085032 43.190685 96.268554 96.275717 96.268554l520.945743 0c53.077869 0 96.261391-43.183522 96.261391-96.268554L868.740914 123.52764zM760.347205 539.478074l-137.488351 0.014326c-0.007163 0-0.007163 0-0.007163 0-6.274914 0-12.229532-1.326205-17.644869-3.668553-18.364253-5.492084-31.838126-22.316262-31.838126-42.472324l-0.028653-255.725242c0-24.584931 19.931958-44.532239 44.525076-44.532239 0.007163 0 0.007163 0 0.007163 0 24.592095 0 44.532239 19.931958 44.532239 44.532239l0.024559 212.797547 56.278771-0.005117 0-89.809445-5.943362 0.002047c-0.007163 0-0.007163 0-0.014326 0-24.584931 0-44.525076-19.931958-44.532239-44.517913-0.007163-24.600281 19.924795-44.532239 44.517913-44.546565l45.74281-0.014326c0.007163 0 0.007163 0 0.014326 0 7.725962 0 14.881942 2.145873 21.216207 5.607718 16.424064 6.5553 28.063149 22.533202 28.063149 41.300638L807.77233 491.741863c0 12.675694-5.351891 24.047696-13.849426 32.156374C785.757944 533.360749 773.824147 539.478074 760.347205 539.478074zM505.396605 539.36244l-71.771627 0 0.002047 20.686135c0 24.584931-19.931958 44.532239-44.532239 44.532239-24.593118 0-44.532239-19.931958-44.532239-44.532239l-0.002047-20.686135-71.77572 0c-31.188326 0-56.56325-25.38311-56.56325-56.5786l0-232.56066c0-31.195489 25.374924-56.5786 56.56325-56.5786l232.611825 0c31.188326 0 56.56325 25.38311 56.56325 56.5786L561.959855 482.783841C561.960879 513.97933 536.584931 539.36244 505.396605 539.36244zM344.54208 282.709059l-39.256072 0 0 38.717813 39.259142-0.00307L344.54208 282.709059zM344.552314 410.488281l-39.266305 0.00307 0 39.807634 39.269375 0L344.552314 410.488281zM472.8964 282.709059l-39.290865 0 0.00307 38.709627 39.287795-0.00307L472.8964 282.709059zM472.8964 410.480094l-39.280632 0.00307 0.00307 39.815821 39.277562 0L472.8964 410.480094z"  horiz-adv-x="1024" />

    
    <glyph glyph-name="daipingjia" unicode="&#58926;" d="M934.574974 318.747277c2.516967-6.893499 4.284373-15.655779 5.218252-26.005244 0.838648-10.346393-3.44675-20.416308-13.04051-30.017236-4.288469-4.19631-8.196014-8.391596-11.734923-12.212102-3.356638-4.01404-6.429632-7.083961-9.133989-9.782174-3.353566-3.453917-6.425536-5.971908-9.124773-7.831474L786.272585 342.141347c5.309387 4.381652 11.078545 9.698207 17.514321 15.657827 6.516671 5.965764 11.926409 10.722197 16.303965 14.354288 10.240922 9.513889 21.606184 13.61804 33.715887 12.216198 12.204934-1.312755 22.086435-4.01404 29.911765-8.39262 8.660905-4.379604 17.880909-11.836298 27.942633-22.741789C921.723903 342.42704 929.356722 330.963474 934.574974 318.747277L934.574974 318.747277 934.574974 318.747277zM478.468431 33.888685l16.775 16.960342 32.509627 32.625338c13.043582 12.961662 27.391726 27.501293 42.946131 43.531853 15.556452 16.029536 31.205064 31.879873 46.855723 47.541797 37.172876 37.285515 79.283431 78.851307 126.051091 124.901151l109.17574-109.241276-126.135059-126.212882-46.763564-46.795308-42.945107-42.973778c-12.110727-12.208006-22.17245-22.37008-30.458575-31.319751-8.206254-8.575914-12.769152-13.326203-13.6078-14.165874-4.376532-3.449822-9.124773-7.081913-14.249842-11.091857-5.311435-3.82153-10.343321-7.086009-15.650659-9.698207-5.218252-2.698213-13.23302-5.873605-24.036112-9.780126-10.994578-3.921881-22.080291-7.740339-33.259187-11.003794-11.270031-3.636188-22.080291-6.716349-32.514747-9.136037-10.341273-2.698213-18.166602-4.568018-23.38383-5.310411-10.334105-1.678319-17.325907-0.377852-20.864815 3.819482-3.447774 4.381652-4.288469 11.841418-2.61015 22.181666 0.839672 5.126093 2.61015 12.957566 5.217228 23.303959 2.609126 10.533783 5.685191 21.165868 9.132965 31.881921 3.447774 10.901395 6.710205 21.157676 9.686943 30.57531 3.169248 9.692063 5.59508 16.033632 7.171 19.669819C462.81982 15.341159 469.711271 25.306627 478.468431 33.888685L478.468431 33.888685 478.468431 33.888685zM848.7974 813.959988C848.7974 859.276655 805.480585 896 760.209998 896L180.618482 896C135.346871 896 92.03108 859.276655 92.03108 813.959988l0-785.96334c0-45.307451 43.315791-88.661129 88.587402-88.661129l119.014234 0 549.165708 549.491337L848.798424 813.959988zM452.814416 250.294585 242.095755 250.294585l0 54.255073 210.718661 0L452.814416 250.294585zM452.814416 373.343339 242.095755 373.343339l0 54.257121 210.718661 0L452.814416 373.343339zM698.732725 496.398236 242.095755 496.398236l0 54.257121 456.63697 0L698.732725 496.398236zM698.732725 619.454157 242.095755 619.454157l0 54.263265 456.63697 0L698.732725 619.454157z"  horiz-adv-x="1024" />

    
    <glyph glyph-name="jiantou-copy" unicode="&#58986;" d="M671.807-31.804l-415.632 415.804 415.632 415.803 63.445-63.616-352.017-352.209 352.017-352.102z"  horiz-adv-x="1024" />

    
    <glyph glyph-name="shanchu" unicode="&#58930;" d="M191.9808 648.8384c0 21.952 17.9136 39.7952 40.0064 39.7952l200.0384 0 0 39.648c0 21.984 17.8752 39.7184 40.0064 39.7184l80.0128 0c22.0544 0 40.0128-17.8048 40.0128-39.7184l0-39.7888 199.9616 0c22.0544 0 40.0064-17.7728 40.0064-39.7248l0-39.7888L191.9808 608.9792 191.9808 648.8384zM792.0192 529.7216l0-79.4432 0-410.4896c0-21.9904-17.952-39.7952-40.0064-39.7952L271.9936-0.0064c-22.0928 0-40.0064 17.8048-40.0064 39.7952L231.9872 450.2784 231.9872 529.7216l0 39.648 560.032 0L792.0192 529.7216zM392.0128 450.208c0 21.9136-18.0224 39.7888-40.0832 39.7888-21.984 0-39.936-17.8752-39.936-39.7888l0-331.0528c0-21.9136 17.952-39.7184 40.0064-39.7184 22.1312 0 40.0064 17.8048 40.0064 39.7184L392.0064 450.208zM552.0448 450.208c0 21.9136-18.016 39.7888-40.0064 39.7888-22.1312 0-40.0064-17.8752-40.0064-39.7888l0-331.0528c0-21.9136 17.9456-39.7184 40.0064-39.7184 21.9904 0 40.0064 17.8048 40.0064 39.7184L552.0448 450.208zM712.0064 450.208c0 21.9136-17.952 39.7888-40.0128 39.7888-22.1312 0-40.0064-17.8752-40.0064-39.7888l0-331.0528c0-21.9136 17.952-39.7184 40.0064-39.7184 22.0608 0 40.0128 17.8048 40.0128 39.7184L712.0064 450.208z"  horiz-adv-x="1024" />

    
    <glyph glyph-name="dengluzhucemima" unicode="&#59008;" d="M528.35448-58.792778c-184.167486 0-334.00919 149.842727-334.00919 334.00919L194.34529 442.182121l668.057265 0 0-166.965709C862.402555 91.049948 712.547549-58.792778 528.35448-58.792778zM220.993207 415.534204l0-140.317793c0-169.490206 137.88437-307.361273 307.361273-307.361273 169.502485 0 307.400159 137.871067 307.400159 307.361273L835.754638 415.534204 220.993207 415.534204zM236.404198 400.120143M528.35448 80.458729c-45.514613 0-82.910315 37.031405-83.352383 82.546018l0 56.548924c0 45.956681 37.409005 83.352383 83.378989 83.352383 45.983287 0 83.404572-37.395702 83.404572-83.352383l0-56.418964C611.30368 117.490134 573.882396 80.458729 528.35448 80.458729zM528.380062 276.258137c-31.280424 0-56.731072-25.425066-56.731072-56.704466l0-56.418964c0.298805-30.837332 25.737174-56.028061 56.704466-56.028061 30.980595 0 56.45785 25.190729 56.783261 56.158021l0 56.287981C585.137741 250.833071 559.673789 276.258137 528.380062 276.258137zM528.359596 260.864542M755.719814 488.94619l-26.647917 0L729.071897 618.178507c0 103.234199-90.040712 187.211822-200.717418 187.211822-110.651123 0-200.666252-83.977623-200.666252-187.211822L327.688227 488.94619l-26.647917 0L301.040311 618.178507c0 117.91148 101.972463 213.859739 227.313146 213.859739 125.367289 0 227.365334-95.948259 227.365334-213.859739L755.718791 488.94619z"  horiz-adv-x="1024" />

    
    <glyph glyph-name="guanzhu" unicode="&#58898;" d="M823.778 261.94c0 0-84.184 11.956-95.758 13.626-0.816 0.127-1.351 0.204-1.377 0.204-6.195 1.389-11.307 5.29-14.353 10.517-0.102 0.241-2.651 5.238-6.374 12.606-11.765 23.353-35.807 71.079-35.807 71.079-2.97 6.527-9.624 11.090-17.349 11.090-7.801 0-14.469-4.563-17.387-11.090 0 0-3.352-6.59-8.056-15.934-12.020-23.761-33.282-65.814-33.36-65.981-2.868-6.182-8.553-10.822-15.513-12.262-0.268-0.051-97.338-13.78-97.338-13.78-8.35-1.976-14.544-9.268-14.544-18.038 0-5.009 2.026-9.547 5.354-12.888 0 0 68.771-65.571 69.014-65.802 3.836-3.901 6.22-9.165 6.22-14.989 0-1.275-0.191-2.537-0.395-3.8-0.051-0.178-7.47-42.488-12.212-69.319-2.167-12.417-3.774-21.517-3.774-21.517s-0.395-2.55-0.395-3.8c0-10.274 8.503-18.585 19.006-18.585 2.549 0 4.946 0.51 7.164 1.403 0 0 64.106 33.039 82.717 42.499 2.995 1.529 4.908 2.498 5.111 2.575 2.549 1.007 5.328 1.593 8.248 1.593 2.868 0 5.545-0.574 8.043-1.517 0.229-0.076 2.193-1.070 5.252-2.65 18.764-9.535 82.183-42.385 82.679-42.563 2.232-0.906 4.691-1.441 7.241-1.441 10.504 0 19.044 8.311 19.044 18.585 0 0.332-1.86 11.219-4.334 25.419-4.921 28.235-12.212 69.944-12.289 70.632-0.076 0.778-0.229 1.543-0.229 2.332 0 5.724 2.32 10.913 6.055 14.787 0.14 0.127 7.749 7.394 17.808 16.966 20.421 19.452 51.103 48.656 51.103 48.656l0.241 0.23c3.352 3.366 5.482 7.929 5.482 13.015 0.003 8.898-6.37 16.317-14.936 18.14v0zM449.327 209.471c-9.293 9.255-14.392 21.53-14.392 34.52 0 22.918 15.934 42.665 38.752 48.057 0.943 0.229 1.913 0.407 2.881 0.548 24.806 3.506 57.757 8.183 78.216 11.076l34.087 67.166c3.913 2.052 7.457 4.678 11.217 6.96 30.058 18.369 55.246 43.774 72.838 74.419 17.54 30.543 27.878 65.725 27.878 103.418 0 114.981-93.374 208.52-208.112 208.52-114.764 0-208.124-93.539-208.124-208.52 0-37.693 10.351-72.876 27.89-103.418 19.809-34.519 48.924-62.997 84.234-81.481-1.988-0.407-4.041-0.51-5.991-1.020-13.334-3.366-25.852-8.655-37.847-15.169-11.893-6.462-22.652-14.417-32.951-22.97-15.78-10.771-30.899-22.664-44.692-36.495-52.723-52.787-83.775-109.882-89.155-183.586-0.128-1.835-8.578-26.030 26.107-26.107h287.169c7.725 43.876 14.074 54.023 15.437 61.673-14.697 14.008-64.921 61.9-64.921 61.9-0.178 0.178-0.357 0.357-0.535 0.51l0.013-0zM449.327 209.471z"  horiz-adv-x="1024" />

    
    <glyph glyph-name="wodepinglun" unicode="&#59031;" d="M511.994883 823.630762c-247.680009 0-448.463941-173.087127-448.463941-386.607128 0-309.905212 278.361799-367.348506 448.463941-492.654396C693.15078 96.188992 960.469058 122.699786 960.469058 437.023634 960.469058 650.543635 759.677962 823.630762 511.994883 823.630762L511.994883 823.630762 511.994883 823.630762zM301.32786 336.194204c-50.467415 0-91.37101 40.909735-91.37101 91.37101 0 50.462299 40.903595 91.367941 91.37101 91.367941 50.461275 0 91.37101-40.905642 91.37101-91.367941C392.699893 377.10394 351.789135 336.194204 301.32786 336.194204L301.32786 336.194204 301.32786 336.194204zM528.080234 336.194204c-50.462299 0-91.367941 40.909735-91.367941 91.37101 0 50.462299 40.905642 91.367941 91.367941 91.367941 50.461275 0 91.37101-40.905642 91.37101-91.367941C619.451244 377.10394 578.541509 336.194204 528.080234 336.194204L528.080234 336.194204 528.080234 336.194204zM745.378282 336.194204c-50.467415 0-91.373057 40.909735-91.373057 91.37101 0 50.462299 40.910759 91.367941 91.373057 91.367941 50.461275 0 91.372034-40.905642 91.372034-91.367941C836.749292 377.10394 795.838533 336.194204 745.378282 336.194204L745.378282 336.194204 745.378282 336.194204zM745.378282 336.194204"  horiz-adv-x="1024" />

    
    <glyph glyph-name="daipingjiab" unicode="&#59065;" d="M511.949858 195.138608c-15.298428 0-29.754674 5.816472-40.691771 16.373922L318.101895 359.780389c-28.089755 26.993794-43.620473 63.070454-43.620473 101.528348s15.530718 74.55502 43.725874 101.655238c27.900443 26.762527 64.840774 41.47153 104.014982 41.47153 33.506115 0 62.817698-10.535961 89.200578-32.114418 26.172079 21.578458 55.800887 32.114418 90.254583 32.114418 39.174208 0 76.094072-14.709003 103.951537-41.408085l0 0c28.237111-27.015284 43.789319-63.133899 43.789319-101.717659 0-38.47836-15.530718-74.55502-43.704384-101.633748L552.663118 211.53402C541.704532 200.95508 527.249309 195.138608 511.949858 195.138608zM422.222277 539.699108c-22.400173 0-43.431162-8.323573-59.193147-23.432689-15.341407-14.750959-23.812335-34.285874-23.812335-54.957683s8.450463-40.164768 23.812335-54.915727l148.920728-144.17975 148.836817 144.07435c15.446807 14.83487 23.896246 34.32783 23.896246 55.021128 0 21.051455-8.239662 40.037878-23.812335 54.936193l-0.021489 0.041956c-15.741519 15.087627-36.771485 23.412223-59.172681 23.412223-21.156856 0-37.741579-6.574742-53.587476-21.283746l-35.380812-42.735313-36.498262 41.450041C459.626165 532.724253 442.915575 539.699108 422.222277 539.699108zM510.433318-23.870408c-56.264445 0-112.5074 11.210319-165.969009 33.631982C238.720963 54.119851 156.600641 136.977977 113.190969 243.10097 23.589254 462.151941 128.910998 713.254909 347.96197 802.877089c219.009016 89.64367 470.15394-15.72003 559.797609-234.771001 26.699082-65.325821 37.003775-136.719848 29.776164-206.470445-1.833765-17.785062-17.637706-30.429033-35.528168-28.869514-17.785062 1.854231-30.703279 17.743106-28.869514 35.528168 6.132674 59.193147-2.612501 119.798457-25.308409 175.304631C771.734556 729.607342 558.416146 819.018721 372.490619 742.946139 186.460716 666.852066 97.027847 453.617567 173.121919 267.60813c36.83493-90.127693 106.585527-160.490228 196.376553-198.146872 89.74907-37.636179 188.832739-38.099736 278.961456-1.221828 16.647145 6.80601 35.465746-1.201361 42.2298-17.701151 6.764054-16.563234-1.159406-35.444257-17.701151-42.2298C620.516506-13.144112 565.474912-23.870408 510.433318-23.870408zM803.406906 101.028207c-0.421602 0-0.843204 0-1.264806 0.021489-17.848507 0.695848-31.777751 15.72003-31.103392 33.590026l4.088108 107.007129c0.695848 17.848507 16.225543 31.608905 33.590026 31.103392 17.848507-0.695848 31.777751-15.72003 31.103392-33.590026l-4.088108-107.007129C835.05879 114.72516 820.707944 101.028207 803.406906 101.028207zM910.415059 96.940099c-0.421602 0-0.843204 0-1.264806 0.021489l-107.007129 4.088108c-17.848507 0.695848-31.777751 15.72003-31.103392 33.590026 0.695848 17.848507 15.888875 31.398104 33.590026 31.103392l107.007129-4.088108c17.848507-0.695848 31.777751-15.72003 31.103392-33.590026C942.065919 110.637052 927.715073 96.940099 910.415059 96.940099z"  horiz-adv-x="1024" />

    
    <glyph glyph-name="ai45" unicode="&#59043;" d="M125.231701 32.872944l140.471288 0 0 421.36577-140.471288 0L125.231701 32.872944zM897.74397 419.103496c0 38.601156-31.578206 70.211085-70.206992 70.211085l-221.224474 0 35.07689 161.53093 0 10.547217c0 14.068414-6.996344 28.084639-13.991666 38.60525l-38.676881 35.131125-231.718479-231.746108c-14.040784-10.547217-21.089317-28.080545-21.089317-49.14428l0-351.155708c0-38.601156 31.632441-70.210062 70.260204-70.210062l316.024583 0c28.080545 0 52.668547 17.541515 63.215764 42.153052l105.337093 249.282506c3.497661 6.995321 3.497661 17.539468 3.497661 24.583908l0 70.211085L897.74397 419.103496C897.74397 415.579229 897.74397 419.103496 897.74397 419.103496"  horiz-adv-x="1024" />

    
    <glyph glyph-name="1xing" unicode="&#59006;" d="M548.265 260.955h-40.295v258.892c-10.074-10.074-23.169-19.139-38.281-28.207-16.117-9.066-30.221-16.117-43.316-21.154v39.287c23.169 11.081 42.309 24.177 59.435 39.287s29.213 29.213 36.265 44.324h26.192v-332.431zM512 822.056l-127.935-174.274-214.569-23.169 87.639-197.444-87.639-198.451 214.569-23.169 127.935-174.274 126.927 174.274 215.575 23.169-87.639 198.451 87.639 197.444-215.575 23.169-126.927 174.274z"  horiz-adv-x="1024" />

    
    <glyph glyph-name="icon_notice" unicode="&#58886;" d="M192 160v320c0 154.816 109.952 283.936 256 313.6v38.4c0 35.36 28.64 64 64 64s64-28.64 64-64v-38.4c146.048-29.664 256-158.784 256-313.6v-320h32.096c35.296 0 63.904-28.416 63.904-64 0-35.36-28.64-64-63.904-64h-704.192c-35.296 0-63.904 28.416-63.904 64 0 35.36 28.64 64 63.904 64h32.096zM608-32c0-53.024-42.976-96-96-96s-96 42.976-96 96h192z"  horiz-adv-x="1024" />

    
    <glyph glyph-name="iocn_be_concern" unicode="&#58887;" d="M445.984 32h-381.984c0.224 184 119.616 339.936 284.832 394.72-56.288 40.544-92.832 106.688-92.832 181.28 0 123.616 100.384 224 224 224 123.616 0 224-100.384 224-224 0-68.768-31.040-130.304-79.968-171.264-120.096-34.688-208.032-145.536-208.032-276.736 0-45.952 10.784-89.44 29.984-128zM700.096 95.987l47.808-47.808c24.704-24.992 24.608-65.312-0.288-90.208-24.96-24.96-65.536-24.96-90.496 0l-158.4 158.4c-24.96 24.96-24.96 65.536 0 90.496l158.4 158.4c24.96 24.992 65.536 24.992 90.496 0 24.992-24.96 24.992-65.536 0-90.496l-50.752-50.784h167.136c35.136-0.224 64-28.8 64-64 0-35.264-28.64-63.936-64-64h-163.904z"  horiz-adv-x="1024" />

    
    <glyph glyph-name="webicon13" unicode="&#58999;" d="M758.624 694.624C764.864 688.384 768 680.192 768 672l0-256 32 0L800 672c0 16.384-6.24 32.768-18.752 45.248C768.768 729.76 752.384 736 736 736l-64 0 0-32 64 0C744.192 704 752.384 700.864 758.624 694.624zM448 736l128 0 0-32-128 0 0 32ZM265.376 73.376C259.136 79.616 256 87.808 256 96L256 672c0 8.192 3.136 16.384 9.376 22.624C271.616 700.864 279.808 704 288 704l64 0L352 736 288 736C271.616 736 255.232 729.76 242.752 717.248 230.24 704.768 224 688.384 224 672l0-576c0-16.384 6.24-32.768 18.752-45.248C255.232 38.24 271.616 32 288 32l224 0 0 32L288 64C279.808 64 271.616 67.136 265.376 73.376zM400 656C408.832 656 416 663.168 416 672L416 768c0 8.832-7.168 16-16 16S384 776.832 384 768l0-96C384 663.168 391.168 656 400 656zM624 656C632.832 656 640 663.168 640 672L640 768c0 8.832-7.168 16-16 16S608 776.832 608 768l0-96C608 663.168 615.168 656 624 656zM720 528c0 8.832-7.168 16-16 16L320 544c-8.832 0-16-7.168-16-16S311.168 512 320 512l384 0C712.832 512 720 519.168 720 528zM592 400c0 8.832-7.168 16-16 16l-256 0c-8.832 0-16-7.168-16-16S311.168 384 320 384l256 0C584.832 384 592 391.168 592 400zM320 288c-8.832 0-16-7.168-16-16S311.168 256 320 256l128 0c8.832 0 16 7.168 16 16S456.832 288 448 288L320 288zM828.672 300.672c-6.24 6.24-16.384 6.24-22.624 0l-241.344-241.344c-6.24-6.24-6.24-16.384 0-22.624C567.808 33.568 571.904 32 576 32s8.192 1.568 11.328 4.672l241.344 241.344C834.912 284.288 834.912 294.4 828.672 300.672zM800 128l-64 0c-8.832 0-16-7.168-16-16S727.168 96 736 96l64 0c8.832 0 16 7.168 16 16S808.832 128 800 128zM800 64l-64 0c-8.832 0-16-7.168-16-16S727.168 32 736 32l64 0c8.832 0 16 7.168 16 16S808.832 64 800 64zM624 176c8.832 0 16 7.168 16 16l0 32 32 0c8.832 0 16 7.168 16 16S680.832 256 672 256l-32 0 0 32c0 8.832-7.168 16-16 16S608 296.832 608 288l0-32-32 0c-8.832 0-16-7.168-16-16S567.168 224 576 224l32 0 0-32C608 183.168 615.168 176 624 176z"  horiz-adv-x="1024" />

    
    <glyph glyph-name="gouxuan" unicode="&#58919;" d="M511.998 709.889c-179.988 0-325.887-145.906-325.887-325.887 0-179.984 145.899-325.891 325.887-325.891 179.984 0 325.891 145.906 325.891 325.891 0 179.981-145.906 325.887-325.891 325.887zM747.57 485.823l-269.036-269.019c-5.742-5.741-13.262-8.611-20.782-8.611s-15.040 2.871-20.783 8.611l-160.545 160.545c-11.482 11.482-11.482 30.082 0 41.564s30.082 11.482 41.564 0l139.763-139.762 248.252 248.237c11.453 11.482 30.083 11.482 41.564 0 11.483-11.482 11.483-30.082 0.001-41.564z"  horiz-adv-x="1024" />

    
    <glyph glyph-name="wenda2" unicode="&#58995;" d="M864.02048 565.04832c-16.25088 0-28.78464-12.99968-28.78464-28.78464 0-15.78496 13.4656-28.77952 29.24544-28.77952 15.79008 0 28.78464-12.99968 28.78464-28.78464l0-319.86176c0-16.25088-12.99456-28.77952-28.78464-28.77952l-29.24544 0c-16.25088 0-28.78464-13.0048-28.78464-28.78464l0-0.46592 0-45.0304-66.38592 65.92c-5.57056 5.57056-12.99456 8.36096-20.8896 8.36096 0 0 0 0-0.4608 0l-144.8448 0c-16.25088 0-28.78464-13.0048-28.78464-28.78464 0-15.78496 12.99968-28.78464 28.78464-28.78464l133.23264 0 106.77248-107.6992c5.57568-5.57568 12.99968-8.82176 20.42368-8.82176 3.72224 0 7.42912 0.92672 11.14624 2.31936 10.6752 4.64384 18.10432 14.85312 18.10432 26.92096l0.46592 87.28064 0.4608 0c47.8208 0 86.81472 38.99904 86.81472 87.28064L951.29088 479.16544C951.296 526.0544 912.30208 565.04832 864.02048 565.04832zM776.74496 275.36384 776.74496 652.78976c0 47.81568-38.99904 87.27552-87.28064 87.27552L167.65952 740.06528c-47.81568 0-87.27552-38.99904-87.27552-87.27552l0-376.96c0-47.8208 38.99392-87.28064 87.27552-87.28064l0.46592 0-0.46592-145.3056c0-12.06784 7.42912-22.74816 18.10432-26.92608 3.71712-1.39264 6.9632-1.85856 10.68032-1.85856 7.88992 0 15.78496 3.25632 21.3504 9.28256l154.12736 164.80256 317.5424 0C737.74592 188.54912 776.74496 227.54816 776.74496 275.36384zM531.72224 440.51968 456.08448 440.51968l0-75.63776c0-18.17088-14.24896-32.41472-32.41984-32.41472s-32.41472 14.73536-32.41472 32.41472L391.24992 440.01792 315.61728 440.01792c-18.17088 0-32.41472 14.24384-32.41472 32.42496 0 18.17088 14.73536 32.41472 32.41472 32.41472l75.63264 0L391.24992 580.49024c0 18.17088 14.24384 32.41472 32.41472 32.41472s32.41984-14.73536 32.41984-32.41472l0-75.63264 75.63264 0c17.67936 0 32.41472-13.75232 32.41472-31.9232C564.13696 454.7584 549.4016 440.51968 531.72224 440.51968z"  horiz-adv-x="1024" />

    
    <glyph glyph-name="new" unicode="&#59000;" d="M0.021489 896L0.021489-127.63774999999998l1023.682775 1023.63775L0.021489 896zM301.220413 303.903777c-10.136871 3.37998-19.48068 5.565762-33.990139 8.546653l-128.60503 26.042119c-9.741875 2.186805-23.257703 5.762237-37.371142 10.337439 2.982938-2.587941 2.982938-2.587941 10.934027-9.345856 3.974521-3.577478 13.31833-12.124132 17.888416-16.696264l65.197908-65.195861c13.317307-13.3214 23.25668-22.063505 31.405267-28.226878l-29.020964-29.017894c-5.564739 7.550976-14.906501 18.085914-28.424376 31.602765l-102.567004 102.568027c-10.334369 10.333346-17.886369 17.092283-27.230178 24.047696l31.009248 31.010271c6.757914-3.179412 16.300244-5.564739 33.194006-8.943696l126.021182-25.441439c11.927657-2.384303 28.624944-6.363941 40.949644-9.939373-8.547677 6.955412-21.070898 18.285458-29.420053 26.634614l-66.788126 66.787102c-11.727089 11.728112-20.273742 19.48068-29.018917 25.838482l29.020964 29.02301c6.757914-9.144264 13.71435-16.896832 25.838482-29.01994l105.151875-105.150852c11.130502-11.132548 19.081591-18.285458 27.230178-24.049742L301.220413 303.903777zM448.111924 450.795289l-62.019519-62.017472c-11.924587-11.92561-17.092283-17.492396-24.645306-25.841551-6.758937 9.145287-12.921287 16.1007-24.647353 27.827789l-107.537202 107.536178c-10.338463 10.338463-16.697287 15.902178-27.232225 24.051789 8.349155 7.552 13.715373 12.521175 25.841551 24.648376l60.029188 60.028165c9.939373 9.93835 16.1007 16.895809 24.25031 27.03268l26.237571-26.236548c-8.5487-6.559393-15.303544-12.523221-27.031657-24.251334l-57.246819-57.246819 40.946574-40.946574 48.303122 48.300053c10.335393 10.336416 16.696264 17.494443 24.447808 27.234271l26.040073-26.041096c-9.343809-6.956436-14.907525-12.124132-27.231201-24.448832l-48.50369-48.499597 46.911426-46.911426 59.632145 59.631122c11.130502 11.132548 16.499789 17.292851 24.051789 26.835182l26.436092-26.437116C466.99397 468.882226 460.236056 462.920444 448.111924 450.795289zM594.999342 637.8372420000001l-95.209432 52.673663c-9.939373 5.565762-19.280112 11.329023-31.207769 19.677155 9.143241-13.516852 14.907525-23.255657 19.48068-31.404244l52.871161-95.010911c6.560416-11.332093 11.332093-19.284205 15.504112-24.650423l-26.436092-26.436092c-5.963829 3.974521-5.963829 3.974521-25.840528 15.106046l-145.70243 82.491783c-14.906501 8.148587-23.056112 12.323677-31.601742 15.700587l31.80231 31.80538c7.15598-6.360871 14.113439-11.330046 25.045419-17.889439l94.219895-57.246819c7.553023-4.770653 19.875676-12.721743 28.025287-18.485003-9.741875 14.907525-13.913894 21.866007-17.887392 29.021987l-54.663994 98.788957c-5.962805 10.734482-11.131525 18.685571-15.900132 24.647353l24.447808 24.447808c5.366218-4.170996 14.907525-10.134825 24.449855-15.303544l98.787934-54.260811c6.560416-3.780093 11.529591-6.762007 29.618575-18.49012-3.577478 5.565762-3.577478 5.565762-9.341762 13.71435-2.585895 3.778046-8.747221 13.118785-10.136871 15.306614l-56.453756 93.423763c-5.565762 9.54233-12.523221 18.884093-17.887392 24.64633l31.804357 31.803333c3.973498-9.538237 7.552-16.695241 15.901155-31.403221l82.092693-145.70243c4.175089-6.955412 6.758937-11.530614 8.149611-13.71435 3.976568-7.157004 3.976568-7.157004 7.552-11.92561l-26.635637-26.635637C614.282524 626.506173 603.747587 633.066589 594.999342 637.8372420000001z"  horiz-adv-x="1024" />

    
    <glyph glyph-name="iconfontzhizuobiaozhun023127" unicode="&#59009;" d="M811.6348 383.99386 811.74634 383.881296 300.716434-127.154749 212.24445-38.685835 634.932332 384 212.24445 806.686858 300.716434 895.156796 811.756573 384.113587Z"  horiz-adv-x="1024" />

    
    <glyph glyph-name="daifukuan" unicode="&#58970;" d="M455.714747-21.653206 183.338922-21.653206c-42.462275 0-76.992128 35.073533-76.992128 78.569006L106.346794 711.0842c0 43.451529 34.554379 78.569006 76.938986 78.569006l433.618012 0c42.414244 0 76.938986-35.110323 76.938986-78.600687l0-203.999808c0-11.58796 9.39382-20.98178 20.98178-20.98178 11.58796 0 20.98178 9.39382 20.98178 20.98178L735.806339 711.052519C735.808383 777.562443 682.654403 831.616766 616.904814 831.616766L183.286802 831.616766C117.57196 831.616766 64.383234 777.560399 64.383234 711.0842l0-654.167377C64.383234-9.609453 117.551521-63.616766 183.338922-63.616766l272.374802 0c11.58796 0 20.98178 9.39382 20.98178 20.98178C476.696527-31.047026 467.302707-21.653206 455.714747-21.653206zM595.928144 663.760479l-391.664671 0c-11.58796 0-20.98178-9.39382-20.98178-20.98178 0-11.58796 9.39382-20.98178 20.98178-20.98178l391.664671 0c11.58796 0 20.98178 9.39382 20.98178 20.98178C616.909924 654.366659 607.516104 663.760479 595.928144 663.760479zM616.909924 488.909924c0 11.58796-9.39382 20.98178-20.98178 20.98178l-391.664671 0c-11.58796 0-20.98178-9.39382-20.98178-20.98178 0-11.58796 9.39382-20.98178 20.98178-20.98178l391.664671 0C607.516104 467.928144 616.909924 477.321964 616.909924 488.909924zM204.263473 356.023952c-11.58796 0-20.98178-9.39382-20.98178-20.98178 0-11.58796 9.39382-20.98178 20.98178-20.98178l223.808383 0c11.58796 0 20.98178 9.39382 20.98178 20.98178 0 11.58796-9.39382 20.98178-20.98178 20.98178L204.263473 356.023952zM714.826603 425.963561c-135.193549 0-244.790164-109.596615-244.790164-244.790164S579.632032-63.616766 714.826603-63.616766 959.616766 45.979848 959.616766 181.173397 850.020152 425.963561 714.826603 425.963561zM793.180998 123.305134c-3.715832-7.048431-9.17921-13.214914-16.392176-18.501493s-16.119313-9.505214-26.719042-12.65897c-3.574802-1.062834-7.328447-1.946826-11.264-2.651976l0-20.224511-47.958355 0 0 19.935297c-6.64578 1.038307-13.350834 2.528319-20.116184 4.471058-14.534259 4.172647-27.811513 10.711122-39.832782 19.614403l32.128255 32.829317c8.086739-5.193581 16.665038-9.413238 25.73592-12.65897 9.06986-3.245733 17.758531-4.868599 26.063968-4.868599 9.835305 0 16.665038 1.11291 20.49022 3.338731 3.825182 2.22582 5.737261 5.378555 5.737261 9.459226 0 2.22582-0.656096 4.080671-1.967265 5.564551-1.31117 1.48388-3.278435 2.874762-5.900774 4.173669-2.622339 1.297884-5.846611 2.54978-9.671792 3.755689-3.825182 1.205908-8.250251 2.550802-13.277253 4.033661l-26.555529 9.459226c-6.119473 1.85485-11.91192 4.312655-17.376319 7.372391-5.464399 3.060758-10.217517 6.677461-14.261397 10.850108-4.04388 4.173669-7.26713 8.949269-9.671792 14.327824-2.404663 5.378555-3.606483 11.314076-3.606483 17.805541 0 7.790371 1.967265 15.069764 5.900774 21.839202 3.934531 6.769437 9.453094 12.704958 16.555689 17.805541 7.103617 5.100583 15.627752 9.134244 25.571385 12.102004 1.329565 0.396519 2.680591 0.767489 4.051034 1.110866l0 21.486627 47.958355 0 0-19.564327c6.432192-0.973924 12.864383-2.448607 19.296575-4.42507 12.676343-3.894675 24.260216-10.01517 34.751617-18.362507l-28.194747-30.046531c-7.649341 4.265645-14.862307 7.511377-21.637876 9.737198-6.775569 2.22582-14.42491 3.338731-22.949046 3.338731-16.173477 0-24.260216-4.080671-24.260216-12.24099 0-4.265645 2.896224-7.511377 8.687649-9.737198 5.791425-2.22582 14.042699-5.007585 24.751776-8.346315l24.588263-8.624287c14.42491-4.451641 25.517222-10.665134 33.275912-18.640479 7.758691-7.975345 11.638036-18.269509 11.638036-30.881469C798.754747 137.679968 796.89683 130.353565 793.180998 123.305134zM910.658938 163.68875c-5.794491 0-10.491401 4.69691-10.491401 10.491401 0 106.22416-86.111042 192.335202-192.335202 192.335202-5.793469 0-10.491401 4.69691-10.491401 10.491401 0 5.794491 4.69691 10.491401 10.491401 10.491401 117.81212 0 213.316982-95.505884 213.316982-213.316982C921.149317 168.385661 916.452407 163.68875 910.658938 163.68875z"  horiz-adv-x="1024" />

    
    <glyph glyph-name="jiahao" unicode="&#58988;" d="M828.02 699.482C743.477 783.616 631.108 829.95 511.546 829.95c-119.558 0-231.954-46.333-316.5-130.467-84.578-84.162-131.17-196.112-131.17-315.195 0-119.112 46.592-231.028 131.135-315.189 84.548-84.133 196.946-130.467 316.507-130.467 119.56 0 231.96 46.334 316.474 130.467 84.611 84.19 131.198 196.14 131.169 315.222 0.03 119.086-46.529 231-131.141 315.162z m-92.63-347.167H543.525v-191.863c0-17.683-14.326-31.975-31.98-31.975-17.646 0-31.973 14.292-31.973 31.975V352.315H287.711c-17.648 0-31.972 14.324-31.972 31.972 0 17.653 14.324 31.98 31.972 31.98h191.863v191.86c0 17.649 14.326 31.975 31.973 31.975 17.654 0 31.98-14.326 31.98-31.974v-191.861h191.862c17.682 0 31.973-14.327 31.973-31.98 0-17.648-14.291-31.972-31.973-31.972z m0 0"  horiz-adv-x="1024" />

    
    <glyph glyph-name="tishi1" unicode="&#58990;" d="M997.64736 76.8512l0 0.13824L577.84832 804.10112l-0.07168 0c-5.25312 19.3536-29.25056 33.87392-58.07104 33.87392-29.0304 0-52.94592-14.86848-57.99424-34.432L32.0256 59.392l0.35328-0.49152c-9.82016-9.74848-7.92576-32.89088 5.39648-54.49216 13.39904-22.02624 33.59232-34.29888 46.63808-29.24544l0.49152-0.768 869.75488 0 0.49152 1.11616c14.52032-2.24256 32.39936 10.52672 43.55072 33.24928C1011.74272 34.91328 1010.90304 64.36864 997.64736 76.8512L997.64736 76.8512zM458.83904 575.47776c0 32.18944 26.15808 58.27584 58.27584 58.27584 32.26112 0 58.28096-26.0864 58.28096-58.27584l0-300.36992c0-32.11264-26.01984-58.27584-58.28096-58.27584-32.11776 0-58.27584 26.15808-58.27584 58.27584L458.83904 575.47776 458.83904 575.47776zM517.12 51.18464c-34.9952 0-63.39584 28.40576-63.39584 63.46752 0 35.00032 28.40064 63.26272 63.39584 63.26272 34.9952 0 63.39072-28.26752 63.39072-63.26272C580.51072 79.66208 552.1152 51.18464 517.12 51.18464L517.12 51.18464z"  horiz-adv-x="1024" />

    
    <glyph glyph-name="anquanbaozhang" unicode="&#59083;" d="M512-128c-6.380062 0-12.760125 3.190031-15.950156 6.380062l-226.492212 143.551402c-108.461059 70.180685-175.451713 185.021807-175.451713 309.433022V720.548287c0 19.140187 12.760125 31.900312 31.900312 31.900311 140.361371 0 274.342679 47.850467 363.663551 133.981309 12.760125 12.760125 31.900312 12.760125 44.660436 0 89.320872-86.130841 223.302181-133.981308 363.663551-133.981309 15.950156 0 31.900312-12.760125 31.900312-31.900311l3.190031-127.601247-3.190031-261.582554c0-124.411215-63.800623-239.252336-175.451713-309.433022l-226.492212-143.551402c-3.190031-3.190031-9.570093-6.380062-15.950156-6.380062zM157.906542 688.647975v-357.283489c0-102.080997 54.23053-197.781931 146.741433-255.202492l207.352025-133.981309 207.352025 133.981309c92.510903 57.420561 146.741433 153.121495 146.741433 255.202492l3.190031 261.582554v95.700935c-140.361371 6.380062-264.772586 51.040498-357.283489 130.791277-92.510903-79.750779-220.11215-124.411215-354.093458-130.791277zM512 222.903427c-19.140187 0-31.900312 12.760125-31.900312 31.900311v159.501558c0 19.140187 12.760125 31.900312 31.900312 31.900311s31.900312-12.760125 31.900312-31.900311v-159.501558c0-19.140187-12.760125-31.900312-31.900312-31.900311zM512 478.105919m-63.800623 0a63.800623 63.800623 0 1 1 127.601246 0 63.800623 63.800623 0 1 1-127.601246 0Z"  horiz-adv-x="1024" />

    
    <glyph glyph-name="shang" unicode="&#58978;" d="M904 204c0-8.189-3.124-16.379-9.372-22.628-12.497-12.496-32.759-12.496-45.256 0L512 518.745 174.628 181.372c-12.497-12.496-32.758-12.496-45.255 0-12.497 12.498-12.497 32.758 0 45.256l360 360c12.497 12.496 32.758 12.496 45.255 0l360-360C900.876 220.379 904 212.189 904 204z"  horiz-adv-x="1024" />

    
    <glyph glyph-name="xia" unicode="&#58979;" d="M904 564c0 8.189-3.124 16.379-9.372 22.628-12.497 12.496-32.759 12.496-45.256 0L512 249.255 174.628 586.628c-12.497 12.496-32.758 12.496-45.255 0-12.497-12.498-12.497-32.758 0-45.256l360-360c12.497-12.496 32.758-12.496 45.255 0l360 360C900.876 547.621 904 555.811 904 564z"  horiz-adv-x="1024" />

    
    <glyph glyph-name="tongzhi1" unicode="&#58965;" d="M588.729556 670.86161a43.378932 43.378932 0 0 1-41.262005 3.200677L269.073647 549.705496h-169.137374a43.350032 43.350032 0 0 1-43.350032-43.350031v-259.095915a43.350032 43.350032 0 0 1 43.350032-43.350032h169.137374l278.401129-124.378466a43.277782 43.277782 0 0 1 41.262005 3.222352 43.299457 43.299457 0 0 1 19.767615 36.363452V634.483708a43.357257 43.357257 0 0 1-19.77484 36.377902zM932.155733 419.373626h-179.295732a43.350032 43.350032 0 0 1 0-86.700064h179.295732a43.350032 43.350032 0 1 1 0 86.700064zM727.334058 483.134298a43.118832 43.118832 0 0 1 23.705242 7.08773l148.025908 96.988471a43.350032 43.350032 0 1 1-47.518859 72.517378L703.527665 562.746631a43.350032 43.350032 0 0 1 23.806393-79.612333zM899.065208 164.836689L751.0393 261.817936a43.350032 43.350032 0 0 1-47.51886-72.524604l148.025909-96.981246a43.299457 43.299457 0 0 1 60.010894 12.49926 43.350032 43.350032 0 0 1-12.492035 60.025343z"  horiz-adv-x="1024" />

    
    <glyph glyph-name="plus-add" unicode="&#59175;" d="M960 384c0-14.080-11.52-25.6-25.6-25.6h-396.8v-396.8c0-14.080-11.52-25.6-25.6-25.6s-25.6 11.52-25.6 25.6v396.8h-396.8c-14.080 0-25.6 11.52-25.6 25.6 0 14.080 11.52 25.6 25.6 25.6h396.8v396.8c0 14.080 11.52 25.6 25.6 25.6s25.6-11.52 25.6-25.6v-396.8h396.8c14.080 0 25.6-11.52 25.6-25.6z"  horiz-adv-x="1024" />

    
    <glyph glyph-name="yifayoujian" unicode="&#58902;" d="M863.043 133.591H291.396c-17.94 0-34.408 7.586-45.183 20.813-10.775 13.229-14.873 30.896-11.243 48.474l78.635 381.99c6.611 32.054 37.417 57.154 70.135 57.154h571.63c17.944 0 34.418-7.584 45.197-20.808 10.775-13.219 14.882-30.876 11.266-48.443L933.16 190.758c-6.591-32.052-37.39-57.167-70.117-57.167z m-568.726 60h568.726c4.413 0 10.458 4.934 11.348 9.261l78.089 379.169H383.741c-4.42 0-10.477-4.935-11.37-9.264l-78.054-379.166zM615.964 311.343c-18.395 0-36.747 7.164-49.902 21.037L349.497 560.653l43.528 41.295L609.594 373.67c2.44-2.573 8.24-3.09 11.086-0.996l316.689 232.799 35.537-48.344L656.23 324.34c-11.867-8.735-26.08-12.997-40.266-12.997zM117.334 583.608h140.172v-60H117.334zM10.805 441.558h218.29v-60H10.805zM87.143 313.727H193.59v-60H87.143z"  horiz-adv-x="1024" />

    
    <glyph glyph-name="weixin" unicode="&#58880;" d="M669.029 535.938c10.181 0 20.236-0.748 30.238-1.865-27.167 126.533-162.436 220.531-316.852 220.531-172.618 0-314.035-117.66-314.035-267.067 0-86.242 47.044-157.061 125.674-211.988l-31.407-94.468 109.755 55.053c39.303-7.781 70.81-15.765 110.011-15.765 9.85 0 19.625 0.482 29.323 1.243-6.144 20.996-9.698 42.983-9.698 65.792 0.002 137.197 117.807 248.533 266.991 248.533zM500.168 621.077c23.639 0 39.303-15.55 39.303-39.185 0-23.536-15.664-39.3-39.303-39.3-23.536 0-47.147 15.765-47.147 39.3 0.001 23.635 23.612 39.185 47.147 39.185zM280.403 542.59c-23.537 0-47.3 15.765-47.3 39.3 0 23.635 23.764 39.185 47.3 39.185 23.535 0 39.2-15.55 39.2-39.185 0-23.535-15.665-39.3-39.2-39.3zM955.618 291.187c0 125.543-125.622 227.882-266.734 227.882-149.413 0-267.091-102.339-267.091-227.882 0-125.77 117.678-227.879 267.091-227.879 31.279 0 62.838 7.897 94.243 15.765l86.12-47.17-23.613 78.473c63.041 47.286 109.983 109.993 109.983 180.811zM602.307 330.475c-15.639 0-31.431 15.549-31.431 31.417 0 15.651 15.792 31.405 31.431 31.405 23.74 0 39.303-15.755 39.303-31.405 0-15.867-15.563-31.417-39.303-31.417zM775.028 330.475c-15.539 0-31.202 15.549-31.202 31.417 0 15.651 15.664 31.405 31.202 31.405 23.536 0 39.301-15.755 39.301-31.405 0.001-15.867-15.765-31.417-39.301-31.417z"  horiz-adv-x="1024" />

    
    <glyph glyph-name="skype" unicode="&#59566;" d="M768 640c88.32-87.04 121.6-208.64 100.693333-322.133333 17.493333-30.72 27.306667-66.56 27.306667-104.533334a213.333333 213.333333 0 0 0-213.333333-213.333333c-37.973333 0-73.813333 9.813333-104.533334 27.306667-113.493333-20.906667-235.093333 12.373333-322.133333 100.693333-88.32 87.04-121.6 208.64-100.693333 322.133333C137.813333 480.853333 128 516.693333 128 554.666667a213.333333 213.333333 0 0 0 213.333333 213.333333c37.973333 0 73.813333-9.813333 104.533334-27.306667 113.493333 20.906667 235.093333-12.373333 322.133333-100.693333m-254.293333-476.16c122.453333 0 183.466667 58.88 183.466666 138.24 0 50.773333-23.893333 104.96-116.48 125.866667l-84.906666 18.773333c-32.426667 7.253333-69.12 17.066667-69.12 47.36 0 30.72 25.6 52.053333 72.533333 52.053333 95.146667 0 86.186667-65.28 133.546667-65.28 24.746667 0 46.08 14.506667 46.08 39.68 0 58.453333-93.44 102.4-172.8 102.4-85.76 0-177.493333-36.693333-177.493334-133.973333 0-46.933333 16.64-96.853333 108.8-119.893333l114.773334-29.013334c34.56-8.533333 43.093333-27.733333 43.093333-45.653333 0-29.013333-29.013333-57.6-81.493333-57.6-102.826667 0-88.746667 78.933333-143.786667 78.933333-24.746667 0-42.666667-17.066667-42.666667-41.386666 0-47.36 56.746667-110.506667 186.453334-110.506667z"  horiz-adv-x="1024" />

    
    <glyph glyph-name="guojiwuliu" unicode="&#58888;" d="M48.2 554.424c4.32-1.864 8.84-2.768 13.28-2.768 12.208 0 23.912 11.136 29.296 22.504 7.472 15.768 8.136 17.84 25.24 49.84h804.168c13.904-24 17.664-33.912 25.12-49.592 7.376-15.504 26.44-24.6 42.568-17.496 16.176 7.048 23.288 24.224 15.96 39.72C917.392 778.832 726.736 896.008 518.12 896.008c-208.8 0-399.536-118.12-485.896-300.496-7.336-15.504-0.192-34.04 15.976-41.088zM899.056 656H687.304c-16.216 64-44.512 133.736-80.464 179.344C724.344 813.504 829.176 752 899.056 656zM481.568 837.344c12.096 0.896 62.736 2.288 75.696 1.248C594.744 807.576 632.32 752 654.192 656H381.84c25.928 96 63.992 150.752 99.728 181.344z m-49.104-1.456C396.16 789.416 366.912 720 348.392 656H137.12c70.504 96 176.56 158.616 295.344 179.888zM988.96 216.072c-16.32 7.048-35.248-3.976-42.48-19.52-5.216-11.168-8.752-20.544-17.016-36.544H106.832c-14.696 32-20.536 42.752-28.536 63.44-6.216 15.952-24.688 26.096-41.336 20.16-16.64-5.928-25.128-22.664-18.944-38.616 77.232-199.464 278.216-332.968 500.104-332.968 210.088 0 401.248 119.104 487.064 303.088 7.256 15.512-0.016 34.008-16.224 40.96zM126.184 128H344.8c19.008-56 46.744-150.712 79.896-193.504C302.64-41.448 194.688 40 126.184 128z m435.28-196.2c-25.664-5.472-59.032-4.952-86.68-0.888C435.864-37.72 400.48 40 377.768 128h280.656c-22.72-88-58.048-164.84-96.96-196.2z m49.912 2.488C644.568-22.952 672.304 40 691.336 128h218.672c-68.76-88-176.56-169.864-298.632-193.712zM383.808 256h462.648C887.104 256 936 286.544 936 327.256v5.632c0 40.664-48.896 75.112-89.544 75.112H677.44l-61.96 133.504C610.408 552.368 599.52 560 587.536 560h-81.04c-9.512 0-18.488-5.76-24.328-13.264a30.856 30.856 0 0 1-5.552-26.52L505.048 408h-25.504l-39.648 53.736C434.12 469.984 424.688 472 414.632 472H326.992c-9.992 0-19.368-2.6-25.152-10.792-5.784-8.128-7.24-17.528-3.928-26.92l56.816-159.536c4.344-12.344 16-18.752 29.08-18.752z m184.096 248l40.976-96h-40.52l-22.24 96h21.784zM398.584 408l39.656-53.736c5.784-8.248 15.2-10.264 25.264-10.264h382.952c6.688 0 25.544-4.432 25.544-11.112v-5.632c0-6.72-18.856-7.256-25.544-7.256H405.632l-35.112 88h28.064zM150.12 288h140.656c8.52 0 15.424 7.488 15.424 16 0 8.52-6.896 16-15.424 16H150.12c-8.52 0-15.416-7.48-15.416-16 0-8.512 6.888-16 15.416-16zM238.752 360c0 8.52-6.888 16-15.416 16H119.288c-8.52 0-15.416-7.48-15.416-16s6.888-16 15.416-16h104.048c8.52 0 15.416 7.48 15.416 16z"  horiz-adv-x="1024" />

    
    <glyph glyph-name="guanbi" unicode="&#59319;" d="M512.001 880.322C237.414 880.322 14.82 657.727 14.82 383.14S237.414-114.04 512-114.04s497.18 222.593 497.18 497.18S786.589 880.322 512.002 880.322z m213.211-645.937c17.798-17.803 17.798-46.657 0-64.456-17.798-17.797-46.658-17.797-64.456 0L512.001 318.685 363.241 169.93c-17.799-17.797-46.652-17.797-64.45 0-17.804 17.799-17.804 46.653 0 64.456L447.545 383.14 298.79 531.896c-17.803 17.798-17.803 46.657 0 64.455 17.799 17.798 46.652 17.798 64.45 0l148.761-148.755 148.755 148.755c17.798 17.798 46.658 17.798 64.456 0 17.798-17.798 17.798-46.657 0-64.455L576.456 383.14l148.756-148.755z m0 0"  horiz-adv-x="1024" />

    
    <glyph glyph-name="baoguofahuo" unicode="&#59524;" d="M128 32c0-17.6 14.4-32 32-32h704c17.6 0 32 14.4 32 32V576H128v-544z m447.2 288H768v-64H575.2v64z m-64-128H768v-64H511.2v64z m-16 416h-368l76.8 135.2c12 16 30.4 24.8 50.4 24.8h240.8v-160z m401.6 0h-368V768h240.8c20 0 38.4-9.6 50.4-24.8l76.8-135.2z"  horiz-adv-x="1024" />

    
    <glyph glyph-name="Bomdanganshenheguanli" unicode="&#58952;" d="M576.57856-128H52.16256a52.608 52.608 0 0 0-8.32 0.64H28.80256a29.12 29.12 0 0 0-28.416 28.48v16.448A53.44 53.44 0 0 0 0.00256-75.584V434.176c0 2.304 0.128 4.608 0.448 6.848V598.4c0 15.168 13.248 28.416 28.416 28.416h39.744V761.472c0 15.168 13.312 28.416 28.416 28.416h39.808V867.584c0 15.168 13.248 28.416 28.416 28.416h786.176c15.168 0 28.416-13.248 28.416-28.416V507.52h17.088c15.168 0 28.416-11.392 26.496-28.416v-37.12c0.384-2.56 0.576-5.12 0.576-7.808v-114.752A320 320 0 0 1 768.00256 448a320.256 320.256 0 0 1-262.08-136.96 165.568 165.568 0 0 1-17.536 0.896c-39.424 0-70.208-12.544-92.48-38.4-21.504-24.32-31.872-55.872-31.872-94.976 0-38.72 10.368-70.272 31.872-94.656 16.192-18.24 36.864-30.08 62.08-35.136A321.856 321.856 0 0 1 576.57856-128z m-126.4 218.816a68.352 68.352 0 0 0-23.424 18.56c-13.952 17.216-20.8 40.128-20.8 69.184 0 29.44 6.848 52.352 20.8 69.568 13.888 16.896 32.832 25.856 57.216 26.752a317.12 317.12 0 0 1-33.792-184.064zM193.66656 839.168v-49.28H839.68256c15.168 0 28.416-13.248 28.416-28.416V507.52h53.056V839.168H193.66656zM127.36256 733.056v-108.032h166.72a24.32 24.32 0 0 0 18.944-7.616L432.38656 507.52h380.8V733.056H127.36256z m0.128-426.176v-256h117.568c27.2 0 48.704 5.12 63.808 15.104 17.536 12.16 26.496 31.168 26.496 56.96 0 17.28-4.288 31.232-12.544 41.28-8.576 10.368-21.12 17.216-38.016 20.48a63.168 63.168 0 0 1 29.44 21.12 63.68 63.68 0 0 1 10.368 36.544 58.24 58.24 0 0 1-20.096 46.272c-14.336 12.16-34.368 18.24-59.84 18.24H127.49056z m41.92-34.368h64.896c17.216 0 29.376-2.88 37.248-8.64 7.168-5.376 11.136-14.336 11.136-26.496 0-13.312-3.968-22.976-11.136-29.056-7.488-5.76-20.032-8.96-37.952-8.96H169.41056V272.512z m0-107.52H240.00256c18.688 0 32.256-3.264 40.896-9.728 8.256-6.464 12.544-16.832 12.544-31.552 0-14.336-5.76-24.384-17.216-30.848-8.96-4.992-21.504-7.552-37.248-7.552H169.41056v79.616zM768.00256-128a256 256 0 1 0 0 512 256 256 0 0 0 0-512z m-91.776 276.928a20.48 20.48 0 0 1-30.016 0 23.36 23.36 0 0 1 0-31.744l80.448-84.992a20.608 20.608 0 0 1 18.304-6.336 19.712 19.712 0 0 1 17.536 6.016l152.512 161.216a22.4 22.4 0 0 1 0 30.4 19.584 19.584 0 0 1-28.736 0l-140.288-148.288-69.76 73.728z"  horiz-adv-x="1024" />

    
    <glyph glyph-name="benbanzushengchandingdanguanli" unicode="&#58956;" d="M485.883749 896h434.802022c28.194044 0 51.081726-22.695886 51.081726-50.698133V300.153087a20.777923 20.777923 0 0 1-20.202535-5.306362l-17.58132-17.517387a29.600549 29.600549 0 0 0-32.861085-4.858838l-34.523319 14.19292a29.92021 29.92021 0 0 0-19.75501 26.85147v24.741712a20.777923 20.777923 0 0 1-20.650059 20.65006h-41.236187a20.777923 20.777923 0 0 1-20.713991-20.65006v-24.805644a29.856278 29.856278 0 0 0-19.755011-26.787538l-34.523319-14.19292a29.472685 29.472685 0 0 0-32.797153 4.858838l-17.645251 17.517387a20.713991 20.713991 0 0 1-29.216957 0l-29.216957-29.216957a20.650059 20.650059 0 0 1 0-29.216957l17.517387-17.581319c8.119373-8.055441 10.293064-22.759818 4.92277-32.797153l-14.256852-34.587252a29.856278 29.856278 0 0 0-26.787538-19.75501h-24.805644a20.713991 20.713991 0 0 1-20.65006-20.650059v-41.300119c0-11.379909 9.334083-20.650059 20.65006-20.650059h24.805644c11.379909 0 23.399138-8.95049 26.787538-19.75501l14.256852-34.523319a29.664481 29.664481 0 0 0-4.92277-32.925018l-17.517387-17.517387a20.777923 20.777923 0 0 1 0-29.280889l29.216957-29.216957c7.991509-7.991509 21.097584-7.991509 29.216957 0l17.581319 17.58132a29.408753 29.408753 0 0 0 32.733221 4.794905l34.651183-14.19292c9.014422-2.813011 16.622339-11.635637 18.987826-21.033652H50.889929A51.145658 51.145658 0 0 0 0-76.215022V845.301867C0 873.304114 22.887682 896 51.081726 896H485.883749zM126.777299 358.970594c0-13.681463 11.571705-25.572829 25.956421-25.572829h229.388275c13.87326 0 25.956421 11.507773 25.956422 25.572829 0 13.681463-11.635637 25.572829-25.956422 25.572829H152.73372a26.084285 26.084285 0 0 1-25.956421-25.572829z m0-204.582631c0-13.681463 11.379909-25.572829 25.508897-25.572829h179.137666c14.384716 0 25.508897 11.507773 25.508897 25.572829 0 13.681463-11.443841 25.572829-25.572829 25.572829H152.350128a25.317101 25.317101 0 0 1-25.572829-25.572829z m0 434.738091c0-13.681463 11.252045-25.572829 25.125304-25.572829H485.244428a25.636761 25.636761 0 0 1 0 51.145657H151.902603c-14.065056 0-25.125304-11.507773-25.125304-25.572828zM1007.185865 109.124056c8.63083 0 15.72729-7.032528 15.72729-15.72729v-31.518512c0-8.63083-7.032528-15.72729-15.72729-15.727289h-18.859961a22.82375 22.82375 0 0 1-20.458263-15.024037l-10.804521-26.340014a22.568021 22.568021 0 0 1 3.708061-24.99744l13.361803-13.425735a15.791222 15.791222 0 0 0 0-22.248362l-22.312293-22.248361a15.791222 15.791222 0 0 0-22.248362 0l-13.297871 13.425735a22.568021 22.568021 0 0 1-25.061372 3.580196l-26.340014-10.80452a22.82375 22.82375 0 0 1-15.087969-20.458263v-18.796029a15.791222 15.791222 0 0 0-15.727289-15.72729h-31.45458a15.791222 15.791222 0 0 0-15.72729 15.72729v18.859961a22.759818 22.759818 0 0 1-15.087969 20.394331l-26.340013 10.868453a22.440157 22.440157 0 0 1-24.933509-3.708061l-13.425735-13.425735a15.791222 15.791222 0 0 0-22.248361 0l-22.312293 22.312293a15.855154 15.855154 0 0 0 0 22.312294l13.425735 13.361803a22.631954 22.631954 0 0 1 3.70806 24.99744l-10.868452 26.340014a22.759818 22.759818 0 0 1-20.458263 15.024037h-18.859961a15.791222 15.791222 0 0 0-15.72729 15.791221v31.45458c0 8.694762 7.032528 15.72729 15.72729 15.72729h18.923893a22.759818 22.759818 0 0 1 20.394331 15.024037l10.868452 26.403945a22.440157 22.440157 0 0 1-3.771992 24.933509l-13.297871 13.425735a15.72729 15.72729 0 0 0 0 22.312293l22.248361 22.248361a15.791222 15.791222 0 0 0 22.248361 0l13.425735-13.425735c6.073547-6.073547 17.261659-7.735781 24.933509-3.644128l26.340013 10.868452a22.759818 22.759818 0 0 1 15.087969 20.330399v18.923893c0 8.63083 7.032528 15.72729 15.72729 15.72729h31.45458c8.63083 0 15.72729-7.032528 15.727289-15.72729v-18.923893c0-8.63083 6.840732-17.837048 15.087969-20.394331l26.276082-10.868452c7.671849-4.027721 18.923893-2.365487 25.061372 3.70806l13.361803 13.425735a15.791222 15.791222 0 0 0 22.248362 0l22.312293-22.248361a15.791222 15.791222 0 0 0 0-22.312293l-13.425735-13.425735a22.504089 22.504089 0 0 1-3.644129-24.933509l10.868453-26.403945c2.557283-8.247237 11.699569-15.024037 20.394331-15.024037h18.859961z m-188.791409-110.091029a78.636449 78.636449 0 1 1 0 157.272898 78.636449 78.636449 0 0 1 0-157.272898z"  horiz-adv-x="1024" />

    
    <glyph glyph-name="huaqiangxincheng-icon-" unicode="&#58955;" d="M1017.28 546.496l-343.648 343.648-232.064-232.064 22.368-22.368-77.536-122.048 3.744-3.648-383.424-383.424 36.672-36.704 383.808 383.808 5.216-5.12 119.008 79.648 17.696-17.696-77.536-122.048 3.744-3.648-383.424-383.424 36.672-36.704 383.808 383.808 5.216-5.12 119.008 79.648 17.696-17.696-77.536-122.048 3.744-3.648-383.424-383.424 36.672-36.704 383.808 383.808 5.216-5.12 119.008 79.648 23.424-23.424z"  horiz-adv-x="1024" />

    
    <glyph glyph-name="pdf" unicode="&#58964;" d="M160 864c-12 0-24.8-4.8-33.6-14.4S112 828 112 816v-864c0-12 4.8-24.8 14.4-33.6 9.6-9.6 21.6-14.4 33.6-14.4h704c12 0 24.8 4.8 33.6 14.4 9.6 9.6 14.4 21.6 14.4 33.6V592L640 864H160zM912 592H688c-12 0-24.8 4.8-33.6 14.4-9.6 8.8-14.4 21.6-14.4 33.6V864l272-272zM696 52.8c-50.4 0-95.2 86.4-119.2 142.4-40 16.8-84 32-126.4 42.4-37.6-24.8-100.8-61.6-149.6-61.6-30.4 0-52 15.2-60 41.6-6.4 21.6-0.8 36.8 5.6 44.8 12.8 17.6 39.2 26.4 79.2 26.4 32 0 72.8-5.6 118.4-16.8 29.6 20.8 59.2 44.8 85.6 70.4-12 56-24.8 146.4 8 188 16 20 40.8 26.4 70.4 17.6 32.8-9.6 44.8-29.6 48.8-44.8 13.6-54.4-48.8-128-91.2-171.2 9.6-37.6 21.6-76.8 36.8-112.8C663.2 192 735.2 152 743.2 108c3.2-15.2-1.6-29.6-13.6-41.6-10.4-8.8-21.6-13.6-33.6-13.6z m-74.4 121.6c30.4-61.6 59.2-90.4 74.4-90.4 2.4 0 5.6 0.8 10.4 4.8 5.6 5.6 5.6 9.6 4.8 12.8-3.2 16-28.8 42.4-89.6 72.8z m-296 82.4c-39.2 0-50.4-9.6-53.6-13.6-0.8-1.6-4-5.6-0.8-16.8 2.4-9.6 8.8-19.2 29.6-19.2 25.6 0 62.4 14.4 105.6 40-31.2 6.4-58.4 9.6-80.8 9.6z m158.4 4.8c25.6-7.2 52-16 76.8-25.6-8.8 23.2-16 47.2-22.4 70.4-17.6-15.2-36-30.4-54.4-44.8zM583.2 520c-8.8 0-15.2-3.2-20.8-9.6-16.8-20.8-18.4-73.6-5.6-140.8 48.8 52 75.2 100 68.8 125.6-0.8 4-4 15.2-26.4 21.6-6.4 2.4-11.2 3.2-16 3.2z"  horiz-adv-x="1024" />

    
    <glyph glyph-name="xiazai" unicode="&#59001;" d="M1024 250.752v-330.752a48 48 0 0 0-48-48H48a48 48 0 0 0-48 48v330.752a48 48 0 0 0 96 0V-32h832v282.752a48 48 0 0 0 96 0z m-545.152-145.984a47.936 47.936 0 0 1 67.904 0l299.904 299.84a48 48 0 1 1-67.968 67.904l-217.792-217.856V848a48.064 48.064 0 0 1-96.064 0v-593.472L246.912 472.448a48 48 0 1 1-67.904-67.904l299.84-299.776z"  horiz-adv-x="1024" />

    
    <glyph glyph-name="cuxiaohuodong" unicode="&#59005;" d="M446.738132-128c-94.732582 0-152.460249 80.966753-185.142989 130.997398C129.739231 18.243423 48.165597 92.697311 47.928766 199.123446a248.125354 248.125354 0 0 0 10.613009 66.016768c2.841977 10.805435 5.535935 21.166811 7.400983 32.268286a285.071061 285.071061 0 0 1-21.906909 34.34056 235.499277 235.499277 0 0 0-35.258283 63.500434C-30.921307 522.102342 75.786065 598.628505 131.145418 634.597282c12.27083 130.2573 91.32813 213.740387 203.615842 213.740388a257.73183 257.73183 0 0 0 51.229604-5.328708 135.808037 135.808037 0 0 0 19.508991-5.920786 84.001156 84.001156 0 0 1 20.900376-5.476728 153.851633 153.851633 0 0 1 45.886095 25.755421A213.355536 213.355536 0 0 0 523.856375 887.11882a184.447297 184.447297 0 0 0 55.388956 8.88118c92.186644 0 150.254756-77.118242 186.179127-128.777103 128.658687-13.765828 212.304597-89.847933 214.110436-195.978029a262.335241 262.335241 0 0 0-10.849841-71.345475c-2.723562-10.805435-5.313906-21.166811-7.238161-31.824227a372.32865 372.32865 0 0 1 21.61087-36.116797c19.597803-29.899971 39.83209-60.83608 41.223475-109.830586 2.78277-97.989014-61.457762-143.579069-118.134489-183.692397-3.374848-2.516334-6.720093-4.884649-10.065337-7.252963-14.801966-128.629084-88.352934-209.447817-193.609714-211.668113l-3.818907-0.148019a258.575542 258.575542 0 0 0-67.393351 10.805435c-10.849841 2.812374-21.211217 5.476727-32.164672 7.400983a281.637005 281.637005 0 0 1-36.131598-23.091067 209.507025 209.507025 0 0 0-62.168257-34.192541 191.300607 191.300607 0 0 0-54.05678-8.289101zM336.700318 760.413992c-102.059555 0-117.216768-110.570685-119.437063-144.467187a62.464296 62.464296 0 0 0-28.567794-48.402428c-85.851402-55.063313-111.695635-95.176641-95.25065-147.72362a175.314484 175.314484 0 0 1 23.239086-39.373229 297.312287 297.312287 0 0 0 32.889968-54.915293 62.760335 62.760335 0 0 0 4.262966-33.304423 422.078057 422.078057 0 0 0-10.139346-46.774213 174.278346 174.278346 0 0 1-7.845042-44.257878c0.207228-86.443481 91.520555-107.610292 145.947384-112.64296a61.709396 61.709396 0 0 0 46.700202-28.123735c31.39497-48.402428 69.065973-100.061289 118.918994-100.06129a105.597225 105.597225 0 0 1 29.737149 4.736629 136.503729 136.503729 0 0 1 36.901301 21.75889 305.305348 305.305348 0 0 0 55.995837 33.748482 61.887019 61.887019 0 0 0 25.163342 5.328708 47.366291 47.366291 0 0 0 9.177219-0.740098 399.815901 399.815901 0 0 0 46.256143-9.917317 190.368083 190.368083 0 0 1 46.093322-7.993062l2.013068 0.14802c85.851402 1.776236 106.781382 90.588031 111.577218 143.431049a62.257069 62.257069 0 0 0 25.355768 44.701937c6.068806 4.44059 12.108008 8.73316 18.236022 13.02573 59.326279 42.185603 83.335068 63.944493 81.958485 111.754843-0.68089 25.163342-10.642613 40.409367-27.117201 65.572709a381.535473 381.535473 0 0 0-30.225615 52.398959 61.887019 61.887019 0 0 0-4.884649 35.080659 462.309801 462.309801 0 0 0 9.71009 45.442035 190.131252 190.131252 0 0 1 8.259497 48.994507c-1.272969 75.193987-75.874877 107.906331-145.266493 113.531079a62.168257 62.168257 0 0 0-46.344955 26.643538c-36.353628 52.546979-73.003296 99.61723-121.376121 99.617231a101.511882 101.511882 0 0 1-29.885169-4.884649 287.824227 287.824227 0 0 1-27.531656-17.762359c-27.457647-19.094536-54.767274-38.041052-86.014224-40.705406a67.334143 67.334143 0 0 0-7.874646-0.444059 143.860306 143.860306 0 0 0-48.254409 10.213356c-2.960393 1.036138-6.468459 2.368315-8.392714 2.812374a172.620526 172.620526 0 0 1-33.985314 3.552471zM658.139809 123.337381a111.236774 111.236774 0 1 0 111.310784 111.162764 111.384793 111.384793 0 0 0-111.310784-111.162764z m0 143.431049a32.268286 32.268286 0 1 1 32.357098-32.268285 32.29789 32.29789 0 0 1-32.357098 32.268285z m-312.839549-105.982076a43.073721 43.073721 0 0 0-30.477248 73.565771l350.806592 350.510552a43.132929 43.132929 0 0 0 60.998901-60.984099l-350.806591-350.510553a42.807285 42.807285 0 0 0-30.521654-12.581671z m33.467245 246.896791a111.458803 111.458803 0 1 0 111.547615 111.458804 111.666031 111.666031 0 0 0-111.547615-111.458804z m0 143.875109a32.416305 32.416305 0 1 1 32.431107-32.416305 32.460711 32.460711 0 0 1-32.431107 32.416305z"  horiz-adv-x="1024" />

    
    <glyph glyph-name="lihe" unicode="&#58993;" d="M541.582222 422.684444v195.697778c-9.102222 0-20.48 2.275556-27.306666 2.275556h-2.275556c-11.377778-2.275556-22.755556-2.275556-38.684444-4.551111v-193.422223H72.817778V577.422222c0 25.031111 20.48 43.235556 43.235555 43.235556h182.044445C250.311111 632.035556 213.902222 652.515556 211.626667 691.2c-2.275556 45.511111 50.062222 120.604444 125.155555 102.4 77.368889-18.204444 131.982222-77.368889 172.942222-129.706667 40.96 52.337778 102.4 120.604444 182.044445 131.982223C762.311111 804.977778 816.924444 736.711111 810.097778 691.2c-6.826667-38.684444-43.235556-61.44-91.022222-70.542222h179.768888c25.031111 0 43.235556-20.48 43.235556-43.235556v-154.737778H541.582222zM345.884444 752.64c-36.408889 13.653333-59.164444-2.275556-75.093333-27.306667-9.102222-13.653333-18.204444-34.133333-4.551111-47.786666 36.408889-36.408889 134.257778-34.133333 202.524444-27.306667-31.857778 38.684444-70.542222 81.92-122.88 102.4z m409.6-75.093333c25.031111 34.133333-25.031111 102.4-79.644444 77.368889-52.337778-25.031111-88.746667-63.715556-122.88-104.675556 27.306667-2.275556 56.888889-2.275556 84.195556-2.275556 36.408889 2.275556 100.124444 4.551111 118.328888 29.582223zM475.591111-43.804444H150.186667c-22.755556 0-40.96 18.204444-40.96 40.96V390.826667h366.364444v-434.631111z m430.08 40.96c0-22.755556-18.204444-40.96-40.96-40.96H539.306667v432.355555h366.364444v-391.395555z m0 0"  horiz-adv-x="1024" />

    
    <glyph glyph-name="jianzhucailiao" unicode="&#58998;" d="M1014.715733 45.7728L584.6528 790.698667c-26.350933 45.653333-92.245333 45.653333-118.613333 0l-163.2256-282.709334c-13.175467-22.818133 3.293867-51.3536 29.6448-51.3536h159.232c63.965867 0 120.183467-48.0768 124.330666-111.906133a119.0912 119.0912 0 0 0-20.0704-74.5472 33.723733 33.723733 0 0 1-0.136533-37.7344c12.919467-19.0976 20.462933-42.0864 20.462933-66.833067s-7.560533-47.735467-20.462933-66.833066a33.4848 33.4848 0 0 1 0-37.512534 118.852267 118.852267 0 0 0 19.8144-79.240533c-2.184533-20.667733 13.073067-38.946133 33.860267-38.946133h305.937066c52.701867-0.017067 85.6576 57.053867 59.2896 102.690133zM496.452267 388.164267H51.3536A51.5072 51.5072 0 0 1 0 336.810667a51.5072 51.5072 0 0 1 51.3536-51.3536h445.098667a51.5072 51.5072 0 0 1 51.3536 51.3536 51.5072 51.5072 0 0 1-51.3536 51.3536zM496.452267 216.968533H51.3536A51.5072 51.5072 0 0 1 0 165.614933a51.5072 51.5072 0 0 1 51.3536-51.3536h445.098667a51.5072 51.5072 0 0 1 51.3536 51.3536 51.5072 51.5072 0 0 1-51.3536 51.3536zM496.452267 45.7728H51.3536A51.5072 51.5072 0 0 1 0-5.5808a51.5072 51.5072 0 0 1 51.3536-51.3536h445.098667a51.5072 51.5072 0 0 1 51.3536 51.3536 51.5072 51.5072 0 0 1-51.3536 51.3536z"  horiz-adv-x="1024" />

    
    <glyph glyph-name="shouye1" unicode="&#58963;" d="M954.181818 407.272727c-2.327273 0 2.327273 0 0 0z m-139.636363-535.272727c4.654545 0 4.654545 0 0 0z m209.454545 584.145455c0 18.618182-9.309091 30.254545-23.272727 44.218181L570.181818 870.4S537.6 896 512 896c-23.272727 0-62.836364-30.254545-62.836364-30.254545L23.272727 500.363636c-18.618182-13.963636-23.272727-23.272727-23.272727-44.218181 0-23.272727 0-48.872727 69.818182-48.872728h69.818182v-442.181818c0-60.509091 34.909091-93.090909 69.818181-93.090909h256V104.727273c0 51.2 41.890909 93.090909 93.09091 93.090909s93.090909-41.890909 93.090909-93.090909v-232.727273h162.909091c39.563636 0 69.818182 58.181818 69.818181 93.090909V407.272727h69.818182c67.490909 0 69.818182 23.272727 69.818182 48.872728z"  horiz-adv-x="1024" />

    
    </font>
</defs>
</svg>
